<?xml version="1.0" encoding="UTF-8"?>
<svg clip-rule="evenodd" fill-rule="evenodd" shape-rendering="geometricPrecision" viewBox="0 0 1761 629" xmlns="http://www.w3.org/2000/svg" xmlns:xlink="http://www.w3.org/1999/xlink"><style>.light{fill:#fa8a75}.dark{fill:#424a52}</style><defs><path id="a" d="M155 126h194c16 0 29 13 29 29v67c0 16 13 30 29 30h67c16 0 30-14 30-30V29c0-16-14-29-30-29h-444c-16 0-29 13-29 29v193c0 16 13 30 29 30h67c16 0 29-14 29-30v-67c0-16 13-29 29-29z"/><use id="b" transform="rotate(180 252 126)" xlink:href="#a"/></defs><use class="dark" xlink:href="#b"/><use class="light" y="377" xlink:href="#a"/><use class="light" x="628" xlink:href="#a"/><use class="dark" x="628" y="377" xlink:href="#b"/><use class="dark" x="1257" xlink:href="#a"/><use class="light" x="1257" y="377" xlink:href="#a"/></svg>
