<svg xmlns="http://www.w3.org/2000/svg" width="263" height="147"><defs><linearGradient id="a" x1="54.4568" x2="251.779" y1="122.5936" y2="10.2057" gradientUnits="userSpaceOnUse"><stop offset="0" stop-color="#00adee"/><stop offset="1" stop-color="#9f76a6"/></linearGradient><linearGradient id="b" x1="80.247" x2="241.2622" y1="38.7607" y2="10.9511" gradientUnits="userSpaceOnUse"><stop offset="0" stop-color="#ec037c"/><stop offset="1" stop-color="#9f76a6"/></linearGradient><linearGradient id="c" x1="75.7205" x2="127.8253" y1="33.5582" y2="123.9392" gradientUnits="userSpaceOnUse"><stop offset="0" stop-color="#ec037c"/><stop offset="1" stop-color="#5c2d90"/></linearGradient><linearGradient id="d" x1="7.4647" x2="129.4543" y1="44.578" y2="125.0813" gradientUnits="userSpaceOnUse"><stop offset="0" stop-color="#44c7f4"/><stop offset="1" stop-color="#5c2d90"/></linearGradient></defs><path fill="url(#a)" d="M261.1839 10.3622a9.6784 9.6784 0 00-14.7448-8.2463v-.0006L20.6942 136.0746a4.6974 4.6974 0 104.1326 8.4348q.09-.0467.1784-.097l230.5273-125.25a9.653 9.653 0 001.1508-.6253l.0332-.018-.0014-.0023a9.6682 9.6682 0 004.4688-8.1546z"/><path fill="url(#b)" d="M261.1839 10.3622A9.6782 9.6782 0 00251.5057.684q-.2747 0-.5456.0157-.25.0143-.4975.041L76.7981 25.4187a13.7347 13.7347 0 106.7374 26.5643l169.2689-32.0318a9.6363 9.6363 0 001.0358-.196l.02-.0039v-.0008a9.6811 9.6811 0 007.3237-9.3883z"/><path fill="url(#c)" d="M145.2028 123.63a17.2372 17.2372 0 00-3.0637-9.4254L91.3045 32.3521a13.7366 13.7366 0 00-25.1913 10.5986 13.6332 13.6332 0 001.043 2.4984s45.2334 86.37 45.5824 86.9979q.3089.556.6567 1.0861a17.32 17.32 0 0031.8075-9.9031z"/><path fill="url(#d)" d="M145.2028 123.63a17.2979 17.2979 0 00-7.63-13.9419 17.3061 17.3061 0 00-2.6994-1.4911L9.5484 38.9679a6.064 6.064 0 00-6.5074 10.187l114.3963 88.704a17.3191 17.3191 0 0027.7655-14.2289z"/><path d="M69 51h70v70H69z"/><g fill="#fff"><path d="M75.038 107.8746h26.2498v4.375H75.038zM74.7429 69.4315l2.0371-1.9233a2.31 2.31 0 001.7929 1.0594 1.33 1.33 0 001.2878-1.5976v-7.22h3.1456v7.2366a4.2386 4.2386 0 01-1.1246 3.2108 4.2989 4.2989 0 01-3.1293 1.1572 4.6592 4.6592 0 01-4.0095-1.9231zM83.7394 59.75h9.1761v2.673h-6.0467v1.744h5.4762v2.4937h-5.4762V68.47h6.1282v2.6893h-9.2576V59.75zM97.049 62.5208h-3.4064V59.75h9.9911v2.7708h-3.4227v8.6383h-3.162v-8.6383zM75.0363 73.8257h5.8511A4.2728 4.2728 0 0184 74.8363a2.5675 2.5675 0 01.7335 1.858v.0326a2.6407 2.6407 0 01-1.76 2.5425 2.7686 2.7686 0 012.2655 2.7871v.0326c0 1.9558-1.5973 3.1456-4.3191 3.1456h-5.8836v-11.409zm6.5846 3.5206c0-.6357-.5052-.9779-1.4343-.9779h-2.07v2.0047h1.9884c.9616 0 1.5158-.326 1.5158-.9942v-.0326zm-1.092 3.2437h-2.4123v2.1025h2.4448c.9779 0 1.5158-.3749 1.5158-1.0431v-.0329c.0001-.6193-.4889-1.0265-1.5483-1.0265zM85.7116 73.8257h5.3949a5.0512 5.0512 0 013.7161 1.2224 3.5623 3.5623 0 011.01 2.6567v.0326a3.6146 3.6146 0 01-2.3469 3.5205l2.7218 3.9769h-3.6342l-2.2981-3.4553h-1.4017v3.4553h-3.1619V73.8257zm5.2644 5.4764a1.433 1.433 0 001.6951-1.3528v-.0326c0-.9128-.6682-1.3691-1.7114-1.3691h-2.0862v2.7545h2.1025z"/><path d="M99.5324 73.7443h3.0476l4.8571 11.4905h-3.39l-.815-2.0536h-4.4168L98 85.2348h-3.3083zm2.7707 6.9758l-1.2712-3.2271-1.2876 3.227h2.5589zM107.8117 73.8257h3.1619v11.4091h-3.1619V73.8257zM111.7558 73.8257h2.95l4.694 6.0306v-6.0306h3.1294v11.4091h-2.7545l-4.89-6.2587v6.2587h-3.1293V73.8257zM122.7274 83.54l1.76-2.1025a5.9106 5.9106 0 003.7 1.3691c.8638 0 1.32-.2934 1.32-.7824v-.0328c0-.489-.3749-.7335-1.9395-1.1084-2.4285-.5541-4.3029-1.2387-4.3029-3.5694v-.0325c0-2.1188 1.6788-3.6509 4.417-3.6509a7.1807 7.1807 0 014.694 1.5158l-1.5809 2.2329a5.6006 5.6006 0 00-3.1946-1.1246c-.766 0-1.1409.31-1.1409.7334v.0323c0 .5216.3912.75 1.9884 1.1083 2.6077.57 4.2377 1.418 4.2377 3.5531v.0326c0 2.3307-1.8418 3.7161-4.6126 3.7161a7.9992 7.9992 0 01-5.3457-1.8901z"/></g></svg>