<svg xmlns="http://www.w3.org/2000/svg" width="862" height="248"><circle cx="124" cy="124" r="84" fill="#65429a"/><circle cx="124" cy="124" r="44" fill="#fff"/><path d="M326.263 197.817h22.145l-39.989-66.864c21.069-6.235 32.249-18.49 32.249-39.559 0-27.3-18.92-41.494-55.469-41.494L248 50v148l16-1v-63l28.144.178zM264 120V65l20.984-.481c25.155 0 35.9 8.17 35.9 26.875 0 20.424-12.254 28.379-33.539 28.379zm212.978 77.817h19.78L449.028 49.9h-23.649l-47.944 147.917h18.919l11.61-37.839h57.619zm-64.5-53.1l24.3-79.334 24.079 79.334h-48.378zM559 28l-17 6v189l17-6V28zm85 21l-18 2v147l75.8-.183 4.15-18.34L642 182zm178.266.9L719 50v15h42v134l16-2 1-132h42z" fill="#65429a"/><path d="M542 24l17-6V0l-17 6v18z" fill="#65429a" fill-rule="evenodd"/></svg>