<svg xmlns="http://www.w3.org/2000/svg" preserveAspectRatio="xMidYMid" width="200" height="75"><defs><filter id="a" filterUnits="userSpaceOnUse"><feFlood flood-color="#65429a"/><feComposite operator="in" in2="SourceGraphic"/><feBlend in2="SourceGraphic" result="solidFill"/></filter><filter id="b" filterUnits="userSpaceOnUse"><feFlood flood-color="#65429a"/><feComposite operator="in" in2="SourceGraphic"/><feBlend in2="SourceGraphic" result="solidFill"/></filter></defs><path d="M179.591 24.219h-9.236v29.683h-4.116V24.219h-9.475V20.68h22.987l-.16 3.539zm-43.758 29.364V20.999h3.797v28.949h13.591l-.797 3.635h-16.591zM118.778 21.29l3.507-1.039v36.294l-3.507 1.039V21.29zm-16.829 23.876H89.124l-2.585 8.417h-4.211L93 20.68h5.264l10.624 32.903h-4.402l-2.537-8.417zm-6.413-21.043L90.129 41.77h10.767l-5.36-17.647zM69.98 53.583l-8.04-14.156h-5.456v14.156h-4.116V20.68h8.471c8.136 0 12.347 3.156 12.347 9.23 0 4.687-2.489 7.413-7.179 8.8l8.902 14.873H69.98zM68.783 29.91c0-4.161-2.393-5.978-7.992-5.978h-4.307v12.291h4.833c4.738 0 7.466-1.77 7.466-6.313zm53.502-17.409l-3.507 1.039v3.794l3.507-1.039v-3.794z" fill="#fff" filter="url(#a)" fill-rule="evenodd"/><circle cx="21" cy="37" r="19" filter="url(#b)" fill="#fff"/><circle cx="21" cy="37" r="10" fill="#fff"/></svg>