<svg xmlns="http://www.w3.org/2000/svg" viewBox="0 0 1920 569" preserveAspectRatio="none">
  <defs>
    <style>
      .part {
        fill-rule: evenodd;
        fill: #f4645f;
      }
    </style>
  </defs>
  <g>
  <path class="part" d="M1920,95C1320.13,60.6,637.321,469.262,741.576,546.03c24.974,16,429.584,24.963,493.144,21.558C1293.49,564.441,1524.91,264.764,1920,408V95Z"/>
  <path class="part" d="M796,0C728.5,41.5,496,191,565,260S1162.28,110.307,1123,0h797V83C1183.53,8.334,613.644,500.588,312.982,561.48c-18.731,4.137-147.375-15.331-159.3-30.24C143,516.242,396.45,136.885,718,0h78Z"/>
  <path class="part" d="M0,0S0.286,25.47,0,31c156.539,78.3,82.742,196.158,0,283V471c41.118,11.565,78.892,19.965,88.774,19.794C111.594,490.4,395.153,107.407,684,0H0Z"/>
  </g>
</svg>
