<svg version="1.1" xmlns="http://www.w3.org/2000/svg" viewBox="0 0 50 50">
    <ellipse cx="25" cy="24.96" rx="3.55" ry="3.5"></ellipse>
    <path d="M42.83,21.48c-1.23-1.01-2.97-1.91-5.02-2.61c-0.41-0.14-0.85-0.27-1.29-0.4c0.07-0.29,0.15-0.58,0.21-0.86
        c0.99-4.72,0.29-8.39-1.83-9.59c-1.04-0.59-2.45-0.59-4.09,0c-1.5,0.54-3.16,1.58-4.8,2.98c-0.33,0.28-0.66,0.59-0.99,0.9
        c-0.22-0.21-0.44-0.42-0.65-0.61c-3.65-3.2-7.24-4.43-9.35-3.23c-1.04,0.59-1.74,1.8-2.04,3.49c-0.27,1.55-0.19,3.49,0.22,5.59
        c0.08,0.42,0.18,0.86,0.3,1.3c-0.51,0.14-1,0.29-1.47,0.46c-4.32,1.48-6.9,3.75-6.9,6.06c0,1.21,0.72,2.45,2.08,3.6
        c1.28,1.08,3.07,2.03,5.19,2.74c0.34,0.12,0.71,0.22,1.08,0.33c-0.12,0.48-0.22,0.94-0.31,1.4c-0.85,4.43-0.15,7.76,1.88,8.91
        c0.54,0.31,1.18,0.46,1.9,0.46c0.7,0,1.47-0.14,2.31-0.43c1.59-0.55,3.32-1.61,5-3.06c0.27-0.24,0.55-0.49,0.83-0.76
        c0.36,0.34,0.72,0.66,1.08,0.97c2.54,2.16,4.99,3.3,6.91,3.3c0.7,0,1.33-0.15,1.87-0.46c1.06-0.6,1.79-1.84,2.12-3.57
        c0.31-1.63,0.24-3.64-0.19-5.8c-0.07-0.34-0.16-0.7-0.25-1.05c0.25-0.07,0.51-0.14,0.75-0.22c4.64-1.51,7.52-3.95,7.52-6.35
        C44.88,23.78,44.17,22.58,42.83,21.48z M31.4,9.6c1.13-0.41,2.07-0.45,2.65-0.12c0.62,0.35,1.07,1.23,1.28,2.48
        c0.25,1.45,0.15,3.29-0.27,5.32c-0.05,0.25-0.12,0.52-0.19,0.78c-1.65-0.37-3.44-0.65-5.31-0.82c-1.09-1.53-2.23-2.93-3.36-4.13
        c0.31-0.29,0.61-0.57,0.92-0.83C28.61,10.99,30.09,10.07,31.4,9.6z M30.55,28.15c-0.62,1.07-1.26,2.08-1.9,3.03
        c-1.18,0.08-2.4,0.13-3.64,0.13c-1.24,0-2.44-0.04-3.59-0.11c-0.68-0.98-1.34-1.99-1.95-3.04v0c-0.61-1.05-1.18-2.1-1.69-3.15
        c0.52-1.06,1.08-2.12,1.69-3.16c0.61-1.05,1.26-2.05,1.93-3.02c1.19-0.09,2.4-0.14,3.62-0.14c1.23,0,2.44,0.05,3.62,0.14
        c0.66,0.96,1.3,1.96,1.92,3.01c0.63,1.07,1.2,2.11,1.71,3.14C31.74,26.03,31.17,27.09,30.55,28.15z M33.17,26.91
        c0.53,1.19,0.99,2.35,1.34,3.44c-1.15,0.26-2.4,0.46-3.71,0.62c0.41-0.64,0.82-1.3,1.22-1.99C32.42,28.29,32.8,27.6,33.17,26.91z
         M25.07,35.75c-0.8-0.86-1.6-1.8-2.39-2.82c0.76,0.03,1.53,0.05,2.32,0.05c0.81,0,1.61-0.02,2.4-0.06
        C26.63,33.96,25.85,34.91,25.07,35.75z M19.24,31.01c-1.3-0.14-2.53-0.33-3.66-0.58c0.35-1.12,0.79-2.28,1.29-3.45
        c0.36,0.68,0.72,1.35,1.12,2.02v0C18.39,29.68,18.81,30.35,19.24,31.01z M16.87,23.04c-0.49-1.15-0.92-2.28-1.27-3.38
        c1.13-0.25,2.34-0.45,3.6-0.61c-0.42,0.64-0.83,1.29-1.22,1.96h0C17.59,21.68,17.22,22.36,16.87,23.04z M25.02,14.29
        c0.78,0.83,1.56,1.77,2.34,2.79c-0.78-0.04-1.56-0.06-2.35-0.06c-0.79,0-1.56,0.02-2.34,0.06C23.43,16.08,24.22,15.14,25.02,14.29z
         M32.01,21c-0.39-0.67-0.8-1.32-1.21-1.95c1.26,0.16,2.48,0.36,3.63,0.62c-0.34,1.08-0.77,2.21-1.28,3.37
        C32.79,22.36,32.42,21.69,32.01,21z M14.86,16.83c-0.38-1.91-0.45-3.63-0.22-4.98c0.2-1.17,0.64-1.99,1.21-2.32
        c0.62-0.35,1.62-0.3,2.82,0.14c1.4,0.52,2.97,1.51,4.55,2.89c0.2,0.17,0.39,0.36,0.59,0.55c-1.16,1.22-2.29,2.62-3.38,4.13
        c-1.87,0.17-3.66,0.44-5.31,0.81C15.04,17.63,14.94,17.22,14.86,16.83z M12.94,29.72c-1.92-0.65-3.52-1.48-4.64-2.43
        c-0.96-0.81-1.48-1.63-1.48-2.33c0-1.73,2.89-3.5,5.76-4.48c0.44-0.15,0.9-0.29,1.37-0.42c0.5,1.6,1.16,3.26,1.94,4.94
        c-0.8,1.71-1.46,3.4-1.97,5.01C13.59,29.92,13.26,29.82,12.94,29.72z M15.89,40.49c-1.52-0.86-1.63-4.21-1.06-7.15
        c0.08-0.42,0.18-0.86,0.29-1.3c1.62,0.35,3.42,0.6,5.36,0.76c1.1,1.52,2.24,2.93,3.41,4.15c-0.25,0.24-0.5,0.48-0.76,0.69
        C19.78,40.53,17.03,41.14,15.89,40.49z M35.19,32.91c0.86,4.29,0.03,6.95-1.11,7.6c-1.52,0.87-4.52-0.71-6.82-2.66
        c-0.33-0.28-0.66-0.58-1-0.9c1.11-1.2,2.23-2.61,3.33-4.17c1.92-0.17,3.74-0.44,5.38-0.82C35.05,32.28,35.13,32.6,35.19,32.91z
         M36.82,29.73c-0.21,0.07-0.45,0.13-0.67,0.2c-0.5-1.56-1.18-3.22-2.02-4.95c0.79-1.69,1.45-3.33,1.94-4.89
        c0.41,0.12,0.8,0.24,1.19,0.37c1.87,0.63,3.42,1.43,4.49,2.31c0.92,0.76,1.43,1.54,1.43,2.2C43.18,26.26,41.19,28.3,36.82,29.73z"></path>
</svg>
