<svg version="1.1" xmlns="http://www.w3.org/2000/svg" viewBox="0 0 50 50">
    <path d="M43.71,29.79c-1.99,0-3.64,1.32-4.16,3.1H19.36c-1.9,0-3.44-1.52-3.44-3.38c0-1.87,1.54-3.38,3.44-3.38h11.01
        c3.21,0,5.83-2.57,5.83-5.73c0-3.16-2.61-5.73-5.83-5.73H10.43c-0.55-1.74-2.18-3.01-4.13-3.01c-2.4,0-4.35,1.91-4.35,4.28
        c0,2.36,1.95,4.28,4.35,4.28c2.02,0,3.71-1.36,4.19-3.2h19.88c1.9,0,3.44,1.52,3.44,3.38s-1.54,3.38-3.44,3.38H19.36
        c-3.21,0-5.83,2.57-5.83,5.73s2.61,5.73,5.83,5.73h20.18c0.52,1.79,2.18,3.1,4.16,3.1c2.4,0,4.35-1.91,4.35-4.28
        S46.11,29.79,43.71,29.79z"></path>
</svg>
