<svg xmlns="http://www.w3.org/2000/svg" xmlns:xlink="http://www.w3.org/1999/xlink"
     width="764" height="198" viewBox="0 0 764 198">
  <path fill="#fff" d="M3.292,29.377c0.164,0.832,1.011.7,2.55-.438A41.6,41.6,0,0,0,11.453,23.6c3.583-3.934,5.143-6.693,4.711-8.315-0.515-1.951-1.046-3.823-1.6-5.6-0.208-.664-1.038-0.494-2.494.5a37.937,37.937,0,0,0-5.364,4.708c-3.527,3.592-5.12,6.289-4.743,8.04,0.45,2.085.89,4.24,1.327,6.449M6.526,45.92c0.183,0.891,1.05.731,2.614-.507a43.392,43.392,0,0,0,5.7-5.837q5.484-6.485,4.867-9.27c-0.5-2.224-.985-4.412-1.476-6.545-0.184-.8-1.038-0.611-2.558.543a42.506,42.506,0,0,0-5.605,5.455q-5.509,6.188-4.94,9.113c0.45,2.326.911,4.681,1.395,7.048m4.015,16.942c0.248,0.872,1.149.67,2.71-.628a43.2,43.2,0,0,0,5.633-6.067c3.591-4.488,5.161-7.716,4.658-9.621-0.6-2.291-1.162-4.59-1.7-6.879-0.2-.857-1.081-0.645-2.637.622a44.855,44.855,0,0,0-5.686,5.922c-3.7,4.44-5.284,7.627-4.81,9.615,0.569,2.364,1.176,4.715,1.833,7.036m5.7,15.936c0.358,0.787,1.3.53,2.831-.785a40.628,40.628,0,0,0,5.4-6.045c3.391-4.446,4.778-7.613,4.087-9.413q-1.237-3.246-2.3-6.612-0.4-1.259-2.738.74A44.5,44.5,0,0,0,17.914,62.8c-3.58,4.534-4.994,7.687-4.315,9.544q1.221,3.311,2.639,6.459m8.1,13.835c0.5,0.655,1.483.341,2.958-.956a36.142,36.142,0,0,0,5.023-5.823c3.081-4.241,4.19-7.2,3.229-8.769q-1.722-2.83-3.223-5.861-0.561-1.135-2.858.888a41.363,41.363,0,0,0-5.338,6.054c-3.333,4.431-4.468,7.39-3.5,8.991q1.735,2.853,3.71,5.476m10.88,11.11c0.647,0.505,1.67.136,3.073-1.117a30.745,30.745,0,0,0,4.569-5.475c2.709-3.937,3.482-6.6,2.208-7.865a61.647,61.647,0,0,1-4.328-4.808q-0.763-.948-2.981,1.045A36.291,36.291,0,0,0,32.8,91.33c-2.99,4.182-3.777,6.844-2.482,8.121a59.614,59.614,0,0,0,4.895,4.293m13.689,8.227c0.79,0.356,1.845-.06,3.168-1.258a25.37,25.37,0,0,0,4.092-5.079c2.32-3.6,2.744-5.929,1.151-6.869a64.35,64.35,0,0,1-5.481-3.643q-0.979-.731-3.093,1.2a30.407,30.407,0,0,0-4.5,5.446c-2.6,3.855-3.016,6.177-1.392,7.115q2.91,1.669,6.054,3.093m16.278,5.51c0.917,0.221,2-.234,3.244-1.378a20.661,20.661,0,0,0,3.64-4.693c1.953-3.267,2.046-5.276.154-5.907q-3.4-1.14-6.574-2.508-1.187-.516-3.189,1.326a24.812,24.812,0,0,0-4.027,5.047c-2.2,3.509-2.271,5.5-.347,6.121q3.446,1.105,7.1,1.992M83.712,120.6a4.355,4.355,0,0,0,3.3-1.478,16.915,16.915,0,0,0,3.243-4.354c1.629-2.973,1.427-4.692-.728-5.047q-3.868-.645-7.547-1.487-1.374-.318-3.266,1.437a20.029,20.029,0,0,0-3.587,4.665c-1.842,3.185-1.6,4.879.585,5.226q3.91,0.611,7.995,1.038m20.423,1.1a4.893,4.893,0,0,0,3.356-1.563,14,14,0,0,0,2.913-4.071c1.357-2.726.9-4.2-1.477-4.317q-4.271-.221-8.383-0.609a4.449,4.449,0,0,0-3.33,1.529,16.258,16.258,0,0,0-3.2,4.329c-1.529,2.905-1.022,4.35,1.378,4.464q4.3,0.2,8.745.238m22-.569a5.391,5.391,0,0,0,3.406-1.637,11.857,11.857,0,0,0,2.648-3.843c1.134-2.524.469-3.789-2.1-3.714q-4.611.131-9.089,0.124a5,5,0,0,0-3.385,1.605,13.436,13.436,0,0,0-2.883,4.048c-1.27,2.674-.549,3.916,2.033,3.838q4.624-.147,9.369-0.421m23.316-1.933a5.837,5.837,0,0,0,3.453-1.7,10.271,10.271,0,0,0,2.441-3.664c0.959-2.363.12-3.462-2.607-3.227q-4.9.417-9.682,0.723A5.516,5.516,0,0,0,139.618,113a11.369,11.369,0,0,0-2.625,3.822c-1.062,2.487-.169,3.567,2.565,3.332q4.894-.427,9.891-0.956m24.418-3.024a6.229,6.229,0,0,0,3.5-1.75,9.111,9.111,0,0,0,2.285-3.528c0.821-2.24-.159-3.207-3.019-2.844q-5.138.648-10.181,1.207a5.966,5.966,0,0,0-3.483,1.721,9.843,9.843,0,0,0-2.425,3.643c-0.9,2.34.134,3.293,2.994,2.932q5.123-.651,10.329-1.381m25.346-3.878a6.541,6.541,0,0,0,3.546-1.793,8.287,8.287,0,0,0,2.17-3.435c0.716-2.153-.377-3.021-3.349-2.556q-5.34.832-10.6,1.594a6.367,6.367,0,0,0-3.53,1.766,8.774,8.774,0,0,0-2.272,3.51c-0.771,2.229.371,3.084,3.338,2.625q5.313-.825,10.7-1.711m26.123-4.527a6.8,6.8,0,0,0,3.592-1.835,7.767,7.767,0,0,0,2.09-3.389c0.64-2.1-.542-2.9-3.609-2.355q-5.51.978-10.952,1.9a6.7,6.7,0,0,0-3.574,1.812,8.03,8.03,0,0,0-2.161,3.423c-0.677,2.153.552,2.937,3.609,2.4q5.474-.957,11.005-1.96M252.1,102.76a6.962,6.962,0,0,0,3.635-1.88,7.485,7.485,0,0,0,2.042-3.394c0.588-2.091-.663-2.85-3.807-2.239q-5.649,1.1-11.244,2.145a6.963,6.963,0,0,0-3.618,1.86,7.577,7.577,0,0,0-2.085,3.386c-0.608,2.114.688,2.854,3.819,2.266q5.605-1.056,11.258-2.145M279.388,97.4a7.042,7.042,0,0,0,3.675-1.931,7.453,7.453,0,0,0,2.02-3.45c0.557-2.119-.742-2.865-3.949-2.2Q275.374,91,269.656,92.15A7.14,7.14,0,0,0,266,94.065a7.382,7.382,0,0,0-2.038,3.4c-0.564,2.113.78,2.836,3.971,2.21q5.711-1.125,11.459-2.272m27.673-5.552a7,7,0,0,0,3.709-1.984,7.61,7.61,0,0,0,2.019-3.554c0.545-2.181-.785-2.942-4.036-2.255q-5.841,1.231-11.652,2.449a7.208,7.208,0,0,0-3.7,1.974,7.4,7.4,0,0,0-2.018,3.468c-0.54,2.151.835,2.884,4.07,2.236l11.606-2.334M334.982,86.3a6.862,6.862,0,0,0,3.733-2.028,7.921,7.921,0,0,0,2.033-3.693c0.546-2.272-.8-3.08-4.073-2.394q-5.886,1.229-11.76,2.468a7.169,7.169,0,0,0-3.727,2.028,7.609,7.609,0,0,0-2.017,3.578c-0.534,2.225.857,3,4.12,2.349q5.84-1.161,11.691-2.308M362.992,81a6.584,6.584,0,0,0,3.743-2.048,8.317,8.317,0,0,0,2.053-3.853c0.557-2.385-.783-3.269-4.062-2.625q-5.895,1.155-11.792,2.354a6.972,6.972,0,0,0-3.743,2.061,7.93,7.93,0,0,0-2.029,3.718c-0.54,2.328.85,3.167,4.122,2.554q5.856-1.1,11.708-2.16m27.927-4.686a6.173,6.173,0,0,0,3.733-2.03,8.718,8.718,0,0,0,2.072-4.016c0.573-2.511-.751-3.5-4.011-2.947q-5.861.995-11.741,2.071a6.611,6.611,0,0,0-3.74,2.059,8.286,8.286,0,0,0-2.045,3.871c-0.557,2.452.819,3.391,4.08,2.851q5.835-.969,11.652-1.86m27.669-3.681a5.664,5.664,0,0,0,3.7-1.965,9.08,9.08,0,0,0,2.081-4.167c0.586-2.641-.711-3.765-3.93-3.352q-5.787.743-11.61,1.606a6.121,6.121,0,0,0-3.716,2.01,8.65,8.65,0,0,0-2.057,4.023c-0.575,2.587.775,3.655,4,3.236q5.778-.752,11.523-1.391m27.262-2.287a5.087,5.087,0,0,0,3.654-1.854,9.345,9.345,0,0,0,2.076-4.3c0.593-2.766-.673-4.045-3.833-3.819q-5.683.408-11.413,0.969a5.521,5.521,0,0,0-3.669,1.911,8.952,8.952,0,0,0-2.059,4.16c-0.591,2.725.726,3.946,3.907,3.692q5.69-.454,11.337-0.763m26.751-.573a4.512,4.512,0,0,0,3.589-1.7,9.445,9.445,0,0,0,2.053-4.4c0.592-2.879-.644-4.322-3.736-4.318q-5.562.013-11.175,0.2a4.888,4.888,0,0,0-3.6,1.767,9.127,9.127,0,0,0-2.044,4.272c-0.6,2.856.68,4.247,3.8,4.2q5.582-.09,11.115-0.016M498.8,71.1a4,4,0,0,0,3.519-1.529,9.427,9.427,0,0,0,2.015-4.46c0.579-2.973-.633-4.577-3.656-4.809q-5.437-.413-10.925-0.645a4.283,4.283,0,0,0-3.526,1.587,9.191,9.191,0,0,0-2.013,4.354c-0.6,2.972.647,4.537,3.7,4.709q5.466,0.311,10.883.793m25.663,3.263a3.564,3.564,0,0,0,3.449-1.347,9.306,9.306,0,0,0,1.968-4.493q0.838-4.566-3.6-5.258-5.325-.829-10.695-1.487a3.766,3.766,0,0,0-3.446,1.391,9.118,9.118,0,0,0-1.967,4.4c-0.586,3.067.629,4.8,3.623,5.2q5.355,0.716,10.665,1.6m25.178,5.1a3.227,3.227,0,0,0,3.387-1.174,9.156,9.156,0,0,0,1.923-4.508c0.539-3.1-.646-4.97-3.554-5.646q-5.23-1.208-10.5-2.264a3.362,3.362,0,0,0-3.373,1.2,8.979,8.979,0,0,0-1.914,4.422q-0.852,4.709,3.561,5.631,5.255,1.1,10.469,2.343m24.732,6.785a2.958,2.958,0,0,0,3.334-1.02,9.1,9.1,0,0,0,1.9-4.536c0.531-3.154-.643-5.134-3.506-6q-5.151-1.542-10.334-2.95a3.058,3.058,0,0,0-3.309,1.017,8.8,8.8,0,0,0-1.867,4.427c-0.553,3.2.613,5.218,3.5,6.023q5.162,1.446,10.284,3.035m24.258,8.446a2.717,2.717,0,0,0,3.288-.883,9.343,9.343,0,0,0,1.915-4.627c0.55-3.249-.6-5.348-3.416-6.39q-5.067-1.862-10.171-3.588a2.825,2.825,0,0,0-3.257.862,8.767,8.767,0,0,0-1.843,4.452c-0.554,3.268.577,5.436,3.409,6.433q5.061,1.793,10.075,3.741m23.635,10.355a2.469,2.469,0,0,0,3.247-.754,10.12,10.12,0,0,0,2-4.842c0.614-3.429-.48-5.7-3.233-6.951q-4.951-2.233-9.96-4.3a2.615,2.615,0,0,0-3.212.722,9.046,9.046,0,0,0-1.865,4.548c-0.588,3.395.48,5.757,3.237,6.98q4.929,2.2,9.789,4.591M645,117.86a2.218,2.218,0,0,0,3.208-.625,11.645,11.645,0,0,0,2.159-5.21c0.74-3.723-.253-6.259-2.909-7.782q-4.781-2.725-9.643-5.221a2.39,2.39,0,0,0-3.17.584,9.84,9.84,0,0,0-1.953,4.77c-0.677,3.624.282,6.274,2.932,7.79q4.739,2.719,9.376,5.695m21.539,15.8c1.092,0.911,2.152.734,3.172-.508a13.825,13.825,0,0,0,2.4-5.676c0.922-4.092.074-6.96-2.449-8.827q-4.54-3.339-9.191-6.411a2.152,2.152,0,0,0-3.125.43,11.329,11.329,0,0,0-2.12,5.134c-0.83,3.971-.034,7.01,2.472,8.88q4.48,3.354,8.842,6.978m20.214,18.562c1.027,1.026,2.084.86,3.158-.449a15.925,15.925,0,0,0,2.668-6.049c1.123-4.386.436-7.54-1.939-9.732q-4.276-3.919-8.661-7.625a1.949,1.949,0,0,0-3.08.269,13.309,13.309,0,0,0-2.354,5.563c-1.035,4.366-.44,7.809,1.911,10,2.8,2.621,5.564,5.3,8.3,8.024m19.226,19.6c0.994,1,2.065.809,3.188-.5a16.5,16.5,0,0,0,2.88-6.031c1.274-4.369.7-7.565-1.563-9.886-2.723-2.765-5.462-5.538-8.228-8.283a1.84,1.84,0,0,0-3.049.152,14.938,14.938,0,0,0-2.6,5.843c-1.243,4.619-.829,8.284,1.411,10.574,2.666,2.745,5.316,5.472,7.962,8.135"/>
  <circle stroke="#fff" stroke-width="5" fill="#eff2f7" cx="694" cy="128" r="50" />
  <circle stroke="#fff" stroke-width="5" fill="#eff2f7" cx="444.078" cy="63" r="48" />
  <circle stroke="#fff" stroke-width="5" fill="#eff2f7" cx="225" cy="104.39" r="32" />
</svg>
