<svg id="HyPm2N2iG" xmlns="http://www.w3.org/2000/svg" width="800" height="600" viewBox="0 0 800 600">
    <style>
        @keyframes HycgD72Vhoz_Animation {
            73.33% {
                opacity: 0;
            }
            80% {
                opacity: 1;
            }
            0% {
                opacity: 0;
            }
            100% {
                opacity: 1;
            }
        }

        @keyframes HycgD72Vhoz_HkgyD8psG_Animation {
            73.33% {
                transform: scale(.5, .5);
            }
            80% {
                transform: scale(1, 1);
            }
            0% {
                transform: scale(.5, .5);
            }
            100% {
                transform: scale(1, 1);
            }
        }

        @keyframes HycgD72Vhoz_By4QmHhsz_Animation {
            73.33% {
                transform: translate(0px, 10px);
            }
            76.67% {
                transform: translate(0px, -10px);
            }
            80% {
                transform: translate(0px, 0px);
            }
            0% {
                transform: translate(0px, 10px);
            }
            100% {
                transform: translate(0px, 0px);
            }
        }

        @keyframes rJjgvQhVhjz_Animation {
            70% {
                opacity: 0;
            }
            76.67% {
                opacity: 1;
            }
            0% {
                opacity: 0;
            }
            100% {
                opacity: 1;
            }
        }

        @keyframes rJjgvQhVhjz_HkUdPL6oM_Animation {
            70% {
                transform: scale(.5, .5);
            }
            76.67% {
                transform: scale(1, 1);
            }
            0% {
                transform: scale(.5, .5);
            }
            100% {
                transform: scale(1, 1);
            }
        }

        @keyframes rJjgvQhVhjz_Hy4zmB2iM_Animation {
            70% {
                transform: translate(0px, 10px);
            }
            73.33% {
                transform: translate(0px, -10px);
            }
            76.67% {
                transform: translate(0px, 0px);
            }
            0% {
                transform: translate(0px, 10px);
            }
            100% {
                transform: translate(0px, 0px);
            }
        }

        @keyframes rynevXhNnsM_Animation {
            66.67% {
                opacity: 0;
            }
            73.33% {
                opacity: 1;
            }
            0% {
                opacity: 0;
            }
            100% {
                opacity: 1;
            }
        }

        @keyframes rynevXhNnsM_SyaIDITiz_Animation {
            66.67% {
                transform: scale(.5, .5);
            }
            73.33% {
                transform: scale(1, 1);
            }
            0% {
                transform: scale(.5, .5);
            }
            100% {
                transform: scale(1, 1);
            }
        }

        @keyframes H1plD72V2if_Animation {
            63.33% {
                opacity: 0;
            }
            70% {
                opacity: 1;
            }
            0% {
                opacity: 0;
            }
            100% {
                opacity: 1;
            }
        }

        @keyframes H1plD72V2if_r1pZ2XPL6oz_Animation {
            63.33% {
                transform: scale(.5, .5);
            }
            70% {
                transform: scale(1, 1);
            }
            0% {
                transform: scale(.5, .5);
            }
            100% {
                transform: scale(1, 1);
            }
        }

        @keyframes Sk0lP73NhsM_Animation {
            60% {
                opacity: 0;
            }
            66.67% {
                opacity: 1;
            }
            0% {
                opacity: 0;
            }
            100% {
                opacity: 1;
            }
        }

        @keyframes Sk0lP73NhsM_SJ5yDLpjG_Animation {
            60% {
                transform: scale(.5, .5);
            }
            66.67% {
                transform: scale(1, 1);
            }
            0% {
                transform: scale(.5, .5);
            }
            100% {
                transform: scale(1, 1);
            }
        }

        @keyframes rynevXhNnsM_SkDW7S2sM_Animation {
            66.67% {
                transform: translate(0px, 10px);
            }
            70% {
                transform: translate(0px, -10px);
            }
            73.33% {
                transform: translate(0px, 0px);
            }
            0% {
                transform: translate(0px, 10px);
            }
            100% {
                transform: translate(0px, 0px);
            }
        }

        @keyframes H1plD72V2if_r1egmB2sM_Animation {
            63.33% {
                transform: translate(0px, 10px);
            }
            66.67% {
                transform: translate(0px, -10px);
            }
            70% {
                transform: translate(0px, 0px);
            }
            0% {
                transform: translate(0px, 10px);
            }
            100% {
                transform: translate(0px, 0px);
            }
        }

        @keyframes Sk0lP73NhsM_HkSRzr2iG_Animation {
            60% {
                transform: translate(0px, 10px);
            }
            63.33% {
                transform: translate(0px, -10px);
            }
            66.67% {
                transform: translate(0px, 0px);
            }
            0% {
                transform: translate(0px, 10px);
            }
            100% {
                transform: translate(0px, 0px);
            }
        }

        @keyframes BJYeDQnVhjM_HJPEbHhof_Animation {
            58.33% {
                transform: translate(0px, 10px);
            }
            61.67% {
                transform: translate(0px, 0px);
            }
            0% {
                transform: translate(0px, 10px);
            }
            100% {
                transform: translate(0px, 0px);
            }
        }

        @keyframes BJYeDQnVhjM_Animation {
            58.33% {
                opacity: 0;
            }
            61.67% {
                opacity: 1;
            }
            0% {
                opacity: 0;
            }
            100% {
                opacity: 1;
            }
        }

        @keyframes rykbwQ2EnoM_HJDYlB2of_Animation {
            51.67% {
                transform: scale(1, 1);
            }
            58.33% {
                transform: scale(0, 0);
            }
            0% {
                transform: scale(1, 1);
            }
            100% {
                transform: scale(0, 0);
            }
        }

        @keyframes HyxWP734nsG_SJMUxSnsM_Animation {
            41.11% {
                transform: translate(0px, 0px);
            }
            41.67% {
                transform: translate(-120px, 0px);
            }
            46.67% {
                transform: translate(0px, 0px);
            }
            51.67% {
                transform: translate(120px, 0px);
            }
            52.22% {
                transform: translate(0px, 0px);
            }
            0% {
                transform: translate(0px, 0px);
            }
            100% {
                transform: translate(0px, 0px);
            }
        }

        @keyframes HyxWP734nsG_BJrmgHnoM_Animation {
            41.67% {
                transform: scale(.1, .1);
            }
            46.67% {
                transform: scale(1, 1);
            }
            51.67% {
                transform: scale(.1, .1);
            }
            0% {
                transform: scale(.1, .1);
            }
            100% {
                transform: scale(.1, .1);
            }
        }

        @keyframes HyxWP734nsG_Animation {
            41.67% {
                opacity: 0;
            }
            46.67% {
                opacity: .5;
            }
            51.67% {
                opacity: 0;
            }
            0% {
                opacity: 0;
            }
            100% {
                opacity: 0;
            }
        }

        @keyframes rkWZw73V3sG_r1EtyHnoz_Animation {
            40% {
                transform: scale(0, 0);
            }
            41.67% {
                transform: scale(1.2, 1.2);
            }
            43.33% {
                transform: scale(.9, .9);
            }
            45% {
                transform: scale(1, 1);
            }
            0% {
                transform: scale(0, 0);
            }
            100% {
                transform: scale(1, 1);
            }
        }

        @keyframes rykbwQ2EnoM_Animation {
            38.33% {
                opacity: 0;
            }
            41.67% {
                opacity: 1;
            }
            51.67% {
                opacity: 1;
            }
            58.33% {
                opacity: 0;
            }
            0% {
                opacity: 0;
            }
            100% {
                opacity: 0;
            }
        }

        @keyframes Hymbw73NhoG_SJ1lyrhoM_Animation {
            41.67% {
                transform: scale(1, 1);
            }
            45% {
                transform: scale(.8, .8);
            }
            0% {
                transform: scale(1, 1);
            }
            100% {
                transform: scale(.8, .8);
            }
        }

        @keyframes Hymbw73NhoG_HJVYA43iM_Animation {
            18.33% {
                transform: translate(0px, 5px);
            }
            23.33% {
                transform: translate(0px, 0px);
            }
            0% {
                transform: translate(0px, 5px);
            }
            100% {
                transform: translate(0px, 0px);
            }
        }

        @keyframes Hymbw73NhoG_Animation {
            18.33% {
                opacity: 0;
            }
            23.33% {
                opacity: 1;
            }
            41.67% {
                opacity: 1;
            }
            45% {
                opacity: 0;
            }
            0% {
                opacity: 0;
            }
            100% {
                opacity: 0;
            }
        }

        @keyframes SyfewQhVnjz_Animation {
            8.33% {
                opacity: 0;
            }
            15% {
                opacity: 1;
            }
            91.67% {
                opacity: 1;
            }
            100% {
                opacity: 0;
            }
            0% {
                opacity: 0;
            }
        }

        @keyframes SyfewQhVnjz_HJoja4noG_Animation {
            8.33% {
                transform: scale(0, 0);
            }
            11.67% {
                transform: scale(.9, .2);
            }
            15% {
                transform: scale(1.1, 1.1);
            }
            16.67% {
                transform: scale(.9, .9);
            }
            18.33% {
                transform: scale(1.05, 1.05);
            }
            20% {
                transform: scale(.97, .97);
            }
            21.67% {
                transform: scale(1, 1);
            }
            41.67% {
                transform: scale(1, 1);
            }
            48.33% {
                transform: scale(1, 1.2);
            }
            51.67% {
                transform: scale(1, .9);
            }
            55.00% {
                transform: scale(1, 1.1);
            }
            58.33% {
                transform: scale(1, .95);
            }
            61.67% {
                transform: scale(1, 1.05);
            }
            65% {
                transform: scale(1, .98);
            }
            68.33% {
                transform: scale(1, 1.02);
            }
            71.67% {
                transform: scale(1, 1);
            }
            88.33% {
                transform: scale(1, 1);
            }
            91.67% {
                transform: scale(1.3, 1.1);
            }
            96.67% {
                transform: scale(.52, 0);
            }
            100% {
                transform: scale(0, 0);
            }
            0% {
                transform: scale(0, 0);
            }
        }

        @keyframes SJ1gwQhN2if_Animation {
            5% {
                opacity: 0;
            }
            8.33% {
                opacity: 1;
            }
            0% {
                opacity: 0;
            }
            100% {
                opacity: 1;
            }
        }

        @keyframes HkhDQ2V2sf_Animation {
            0% {
                opacity: 0;
            }
            6.67% {
                opacity: 1;
            }
            7.22% {
                opacity: .3;
            }
            8.33% {
                opacity: 1;
            }
            13.33% {
                opacity: 1;
            }
            13.89% {
                opacity: .3;
            }
            15% {
                opacity: 1;
            }
            100% {
                opacity: 1;
            }
        }

        @keyframes SJxPQnEnjz_Animation {
            0% {
                opacity: 0;
            }
            7.78% {
                opacity: 1;
            }
            100% {
                opacity: 1;
            }
        }

        @keyframes SJxPQnEnjz_rygLn4nsf_Animation {
            0% {
                transform: scale(1, .3);
            }
            10% {
                transform: scale(1, 1);
            }
            100% {
                transform: scale(1, 1);
            }
        }

        @keyframes SJxPQnEnjz_rkRE2VnsG_Animation {
            0% {
                transform: translate(0px, -20px);
            }
            11.67% {
                transform: translate(0px, 0px);
            }
            100% {
                transform: translate(0px, 0px);
            }
        }

        #HyPm2N2iG * {
            animation-duration: 7s;
            animation-timing-function: cubic-bezier(0, 0, 1, 1);
            transform-box: fill-box;
            transform-origin: 50% 50%;
        }

        #ryGv73N3jf {
            fill: #66b34e;
            fill-rule: evenodd;
            opacity: .15;
        }

        #S17PQn4njz {
            fill-rule: evenodd;
            fill: #e8ebf0;
        }

        #H1BwXnVnjf {
            fill-rule: evenodd;
            fill: #f4f5f7;
        }

        #HJ8P7342iz {
            fill-rule: evenodd;
            fill: #f4f5f7;
        }

        #Hyvwm2Enjf {
            fill-rule: evenodd;
            fill: #f4f5f7;
        }

        #HyOw72V2sM {
            fill-rule: evenodd;
            fill: #f4f5f7;
        }

        #HycvQ2V3iM {
            fill: #474e5d;
        }

        #HkhDQ2V2sf {
            fill: #654299;
            animation-name: HkhDQ2V2sf_Animation;
            transform-origin: 50% 50%;
        }

        #r1awm3NhiG {
            fill-rule: evenodd;
            fill: #e8ebf0;
        }

        #HyCPXhN3jf {
            fill-rule: evenodd;
            fill: #474e5d;
            opacity: .1;
        }

        #SJ1gwQhN2if {
            fill: #e8ebf0;
            animation-name: SJ1gwQhN2if_Animation;
            transform-origin: 50% 50%;
        }

        #B1xlPmnNnsG {
            fill-rule: evenodd;
            fill: #a5adbd;
        }

        #SkWgw7h43iM {
            fill-rule: evenodd;
            opacity: .1;
            fill: url(#linear-gradient);
        }

        #BkXlwXhVnoM {
            fill-rule: evenodd;
            fill: #2d3f51;
            opacity: .15;
        }

        #BJSlvXnN3jG {
            fill-rule: evenodd;
            fill: #fff;
        }

        #BkIlDQh4niz {
            fill-rule: evenodd;
            fill: #f4f5f7;
        }

        #HJDePX24niz {
            fill: #fff;
        }

        #rkOlwQ2NnsM {
            fill-rule: evenodd;
            fill: #fff;
        }

        #HycgD72Vhoz {
            fill: #f3f5f7;
            transform-origin: 50% 50%;
            opacity: 0;
            animation-name: HycgD72Vhoz_Animation;
        }

        #rJjgvQhVhjz {
            fill: #f3f5f7;
            transform-origin: 50% 50%;
            opacity: 0;
            animation-name: rJjgvQhVhjz_Animation;
        }

        #rynevXhNnsM {
            fill: #f3f5f7;
            transform-origin: 50% 50%;
            opacity: 0;
            animation-name: rynevXhNnsM_Animation;
        }

        #H1plD72V2if {
            fill: #f3f5f7;
            transform-origin: 50% 50%;
            opacity: 0;
            animation-name: H1plD72V2if_Animation;
        }

        #Sk0lP73NhsM {
            fill: #f3f5f7;
            transform-origin: 50% 50%;
            opacity: 0;
            animation-name: Sk0lP73NhsM_Animation;
        }

        #HyxWP734nsG {
            fill: #6f4ca5;
            transform-origin: 50% 50%;
            opacity: 0;
            animation-name: HyxWP734nsG_Animation;
        }

        #rkWZw73V3sG {
            fill: #6f4ca5;
        }

        #SkM-vXnN3sG {
            fill: #fff;
        }

        #Hymbw73NhoG {
            fill-rule: evenodd;
            fill: #6a6f79;
            animation-name: Hymbw73NhoG_Animation;
            transform-origin: 50% 50%;
            opacity: 0;
        }

        #rkrZDQ343oM {
            fill: #fc5254;
        }

        #SJIWvm3E2iM {
            fill: #fcae52;
        }

        #BywbP7nEniG {
            fill: #66b34e;
        }

        #SJxPQnEnjz_rkRE2VnsG {
            animation-name: SJxPQnEnjz_rkRE2VnsG_Animation;
            transform-origin: 50% 50%;
            transform: translate(0, 0);
            animation-timing-function: cubic-bezier(0, 0, .58, 1);
        }

        #SJxPQnEnjz_rygLn4nsf {
            animation-name: SJxPQnEnjz_rygLn4nsf_Animation;
            transform-origin: 50% 50%;
            transform: scale(1, 1);
            animation-timing-function: cubic-bezier(0, 0, .58, 1);
        }

        #SJxPQnEnjz {
            animation-name: SJxPQnEnjz_Animation;
            transform-origin: 50% 50%;
            opacity: 1;
        }

        #SJ1gwQhN2if_ByCSTN2jG {
            transform-origin: 50% 50%;
            transform: scale(0, 0);
        }

        #SyfewQhVnjz_HJoja4noG {
            animation-name: SyfewQhVnjz_HJoja4noG_Animation;
            transform-origin: 50% 50%;
            transform: scale(0, 0);
            animation-timing-function: cubic-bezier(.42, 0, .58, 1);
        }

        #SyfewQhVnjz_HJoja4noG,
        #SyfewQhVnjz_HJoja4noG * {
            animation-iteration-count: infinite;
        }

        #SyfewQhVnjz {
            animation-name: SyfewQhVnjz_Animation;
            transform-origin: 50% 50%;
            opacity: 0;
        }

        #Hymbw73NhoG_HJVYA43iM {
            animation-name: Hymbw73NhoG_HJVYA43iM_Animation;
            transform-origin: 50% 50%;
            transform: translate(0px, 5px);
            animation-timing-function: cubic-bezier(.42, 0, .58, 1);
        }

        #Hymbw73NhoG_SJ1lyrhoM {
            animation-name: Hymbw73NhoG_SJ1lyrhoM_Animation;
            transform-origin: 50% 50%;
            transform: scale(1, 1);
            animation-timing-function: cubic-bezier(0, 0, .58, 1);
        }

        #rykbwQ2EnoM {
            animation-name: rykbwQ2EnoM_Animation;
            transform-origin: 50% 50%;
            opacity: 0;
        }

        #rkWZw73V3sG_r1EtyHnoz {
            animation-name: rkWZw73V3sG_r1EtyHnoz_Animation;
            transform-origin: 50% 50%;
            transform: scale(0, 0);
            animation-timing-function: cubic-bezier(.42, 0, .58, 1);
        }

        #HyxWP734nsG_BJrmgHnoM {
            animation-name: HyxWP734nsG_BJrmgHnoM_Animation;
            transform-origin: 50% 50%;
            transform: scale(.1, .1);
            animation-timing-function: cubic-bezier(.42, 0, .58, 1);
        }

        #HyxWP734nsG_SJMUxSnsM {
            animation-name: HyxWP734nsG_SJMUxSnsM_Animation;
            transform-origin: 50% 50%;
            transform: translate(0px, 0px);
            animation-timing-function: cubic-bezier(.42, 0, .58, 1);
        }

        #rykbwQ2EnoM_HJDYlB2of {
            animation-name: rykbwQ2EnoM_HJDYlB2of_Animation;
            transform-origin: 50% 50%;
            transform: scale(1, 1);
            animation-timing-function: cubic-bezier(.42, 0, .58, 1);
        }

        #BJYeDQnVhjM {
            animation-name: BJYeDQnVhjM_Animation;
            transform-origin: 50% 50%;
            opacity: 0;
        }

        #BJYeDQnVhjM_HJPEbHhof {
            animation-name: BJYeDQnVhjM_HJPEbHhof_Animation;
            transform-origin: 50% 50%;
            transform: translate(0px, 10px);
            animation-timing-function: cubic-bezier(.42, 0, .58, 1);
        }

        #Sk0lP73NhsM_HkSRzr2iG {
            animation-name: Sk0lP73NhsM_HkSRzr2iG_Animation;
            transform-origin: 50% 50%;
            transform: translate(0px, 10px);
            animation-timing-function: cubic-bezier(.42, 0, .58, 1);
        }

        #H1plD72V2if_r1egmB2sM {
            animation-name: H1plD72V2if_r1egmB2sM_Animation;
            transform-origin: 50% 50%;
            transform: translate(0px, 10px);
            animation-timing-function: cubic-bezier(.42, 0, .58, 1);
        }

        #rynevXhNnsM_SkDW7S2sM {
            animation-name: rynevXhNnsM_SkDW7S2sM_Animation;
            transform-origin: 50% 50%;
            transform: translate(0px, 10px);
            animation-timing-function: cubic-bezier(.42, 0, .58, 1);
        }

        #rJjgvQhVhjz_Hy4zmB2iM {
            transform-origin: 50% 50%;
            transform: translate(0px, 10px);
            animation-name: rJjgvQhVhjz_Hy4zmB2iM_Animation;
            animation-timing-function: cubic-bezier(.42, 0, .58, 1);
        }

        #HycgD72Vhoz_By4QmHhsz {
            transform-origin: 50% 50%;
            transform: translate(0px, 10px);
            animation-name: HycgD72Vhoz_By4QmHhsz_Animation;
            animation-timing-function: cubic-bezier(.42, 0, .58, 1);
        }

        #Sk0lP73NhsM_SJ5yDLpjG {
            animation-name: Sk0lP73NhsM_SJ5yDLpjG_Animation;
            transform-origin: 50% 50%;
            transform: scale(.5, .5);
            animation-timing-function: cubic-bezier(.42, 0, .58, 1);
        }

        #H1plD72V2if_r1pZ2XPL6oz {
            animation-name: H1plD72V2if_r1pZ2XPL6oz_Animation;
            transform-origin: 50% 50%;
            transform: scale(.5, .5);
            animation-timing-function: cubic-bezier(.42, 0, .58, 1);
        }

        #rynevXhNnsM_SyaIDITiz {
            transform-origin: 50% 50%;
            animation-name: rynevXhNnsM_SyaIDITiz_Animation;
            animation-timing-function: cubic-bezier(.42, 0, .58, 1);
            transform: scale(.5, .5);
        }

        #rJjgvQhVhjz_HkUdPL6oM {
            transform-origin: 50% 50%;
            transform: scale(.5, .5);
            animation-name: rJjgvQhVhjz_HkUdPL6oM_Animation;
            animation-timing-function: cubic-bezier(.42, 0, .58, 1);
        }

        #HycgD72Vhoz_HkgyD8psG {
            transform-origin: 50% 50%;
            transform: scale(.5, .5);
            animation-name: HycgD72Vhoz_HkgyD8psG_Animation;
            animation-timing-function: cubic-bezier(.42, 0, .58, 1);
        }
    </style>
    <defs>
        <linearGradient id="linear-gradient" x1="495.093" y1="118.844" x2="495.093" y2="374.969" gradientUnits="userSpaceOnUse">
            <stop offset="0" stop-color="#fff"/>
            <stop offset="1" stop-color="#fff" stop-opacity="0"/>
        </linearGradient>
    </defs>
    <g id="SJxPQnEnjz_rkRE2VnsG">
        <g id="SJxPQnEnjz_rygLn4nsf">
            <g id="SJxPQnEnjz">
                <g id="ByZDXhN2oz">
                    <path id="ryGv73N3jf" d="M290.061,490.463a2.86,2.86,0,0,1,0-1,2.486,2.486,0,0,1-.043-0.464H533.982a2.486,2.486,0,0,1-.043.464,326.2,326.2,0,0,0,0,1.985A1.968,1.968,0,0,1,532,494H292a1.968,1.968,0,0,1-1.942-2.551A2.888,2.888,0,0,1,290.061,490.463Z"/>
                    <path id="S17PQn4njz" d="M304.66,457H519.34a4.358,4.358,0,0,1,3.718,2.709l10.675,27.972c0.7,1.824-.076,3.319-1.733,3.319H292c-1.657,0-2.43-1.5-1.733-3.319l10.676-27.972A4.355,4.355,0,0,1,304.66,457Z"/>
                    <g id="HkED7h4nif">
                        <path id="H1BwXnVnjf" d="M297,480H527a1,1,0,0,1,1,1l1,3a1,1,0,0,1-1,1H296a1,1,0,0,1-1-1l1-3A1,1,0,0,1,297,480Z"/>
                        <path id="HJ8P7342iz" d="M300,473H524a1,1,0,0,1,1,1l1,3a1,1,0,0,1-1,1H299a1,1,0,0,1-1-1l1-3A1,1,0,0,1,300,473Z"/>
                        <path id="Hyvwm2Enjf" d="M303,466H521a1,1,0,0,1,1,1l1,3a1,1,0,0,1-1,1H302a1,1,0,0,1-1-1l1-3A1,1,0,0,1,303,466Z"/>
                        <path id="HyOw72V2sM" d="M306,459H518a1,1,0,0,1,1,1l1,3a1,1,0,0,1-1,1H305a1,1,0,0,1-1-1l1-3A1,1,0,0,1,306,459Z"/>
                    </g>
                </g>
            </g>
        </g>
    </g>
    <g id="ByKw7n43if">
        <rect id="HycvQ2V3iM" x="181" y="101" width="460" height="279" rx="10" ry="10"/>
        <g id="SJiPQ2EnsM">
            <rect id="HkhDQ2V2sf" x="199" y="120" width="424" height="242"/>
            <path id="r1awm3NhiG" d="M335.179,433.639V429.29l16.577-2.186L365.342,380h91.27L470.2,427.1l16.577,2.186v4.349h-151.6Z"/>
            <path id="HyCPXhN3jf" d="M362.4,390.2L365.342,380h91.27l2.941,10.194H362.4Z"/>
            <circle id="SJ1gwQhN2if" cx="411.094" cy="371" r="4.125"/>
            <path id="B1xlPmnNnsG" d="M411.631,108.711a2.176,2.176,0,1,1-2.175,2.175A2.175,2.175,0,0,1,411.631,108.711Z"/>
        </g>
        <path id="SkWgw7h43iM" d="M623.15,374.954H367.034L623.15,118.839V374.954Z"/>
    </g>
    <g id="SyfewQhVnjz_HJoja4noG">
        <g id="SyfewQhVnjz">
            <path id="BkXlwXhVnoM" d="M526.2,338H295.8a4.8,4.8,0,0,1-4.8-4.8h0V162.8h0a4.8,4.8,0,0,1,4.8-4.8H526.2a4.8,4.8,0,0,1,4.8,4.8h0V333.2h0A4.8,4.8,0,0,1,526.2,338ZM291.962,317H292V179h-0.038V317ZM530.038,179H530V317h0.038V179Z"/>
            <g id="SJNevmnNhoM">
                <path id="BJSlvXnN3jG" d="M530.4,324.4v1.8a0.6,0.6,0,0,0-.6.6V328a0.6,0.6,0,0,0-.6.6v0.6H528a0.6,0.6,0,0,0-.6.6h-3.6a0.6,0.6,0,0,0-.6.6V331H311.4v-0.6H294v-0.6a0.6,0.6,0,0,0-.6-0.6h-0.6v-0.6a0.6,0.6,0,0,0-.6-0.6h-0.6V314.2H291V158.8h6.6a0.6,0.6,0,0,0,.6-0.6V151H521.4v9a0.6,0.6,0,0,0,.6.6h9V323.8A0.6,0.6,0,0,0,530.4,324.4Z"/>
                <path id="BkIlDQh4niz" d="M526.2,331H295.8a4.8,4.8,0,0,1-4.8-4.8V155.8a4.8,4.8,0,0,1,4.8-4.8H526.2a4.8,4.8,0,0,1,4.8,4.8V326.2A4.8,4.8,0,0,1,526.2,331Zm-234.238-5.231a4.21,4.21,0,0,0,4.209,4.209H525.829a4.21,4.21,0,0,0,4.209-4.209V172H291.962V325.769Z"/>
                <rect id="HJDePX24niz" x="313" y="156" width="179" height="11" rx="3" ry="3"/>
                <path id="rkOlwQ2NnsM" d="M302.019,159.568a1.955,1.955,0,0,0-3.71,1.079c0,1.833,3.71,4.107,3.71,4.107s3.688-2.252,3.688-4.107a2.041,2.041,0,0,0-1.965-2.208A1.919,1.919,0,0,0,302.019,159.568Z"/>
                <g id="BJYeDQnVhjM_HJPEbHhof">
                    <g id="BJYeDQnVhjM">
                        <g id="HycgD72Vhoz_By4QmHhsz">
                            <g id="HycgD72Vhoz_HkgyD8psG">
                                <rect id="HycgD72Vhoz" x="454" y="278" width="66" height="43"/>
                            </g>
                        </g>
                        <g id="rJjgvQhVhjz_Hy4zmB2iM">
                            <g id="rJjgvQhVhjz_HkUdPL6oM">
                                <rect id="rJjgvQhVhjz" x="378" y="278" width="66" height="43"/>
                            </g>
                        </g>
                        <g id="rynevXhNnsM_SkDW7S2sM">
                            <g id="rynevXhNnsM_SyaIDITiz">
                                <rect id="rynevXhNnsM" x="302" y="278" width="66" height="43"/>
                            </g>
                        </g>
                        <g id="H1plD72V2if_r1egmB2sM">
                            <g id="H1plD72V2if_r1pZ2XPL6oz">
                                <rect id="H1plD72V2if" x="302" y="207" width="218" height="62"/>
                            </g>
                        </g>
                        <g id="Sk0lP73NhsM_HkSRzr2iG">
                            <g id="Sk0lP73NhsM_SJ5yDLpjG">
                                <rect id="Sk0lP73NhsM" x="302" y="183" width="218" height="15"/>
                            </g>
                        </g>
                    </g>
                </g>
                <g id="Hymbw73NhoG_HJVYA43iM">
                    <g id="Hymbw73NhoG_SJ1lyrhoM">
                        <path id="Hymbw73NhoG" d="M313.672,188.921l-0.3-.513a1.912,1.912,0,0,1-.909.225,0.748,0.748,0,0,1-.909-0.8v-2.818h1.548l0.1-.594h-1.647v-1.162l-0.756.09v1.072h-1.09v0.594h1.09v2.827a1.412,1.412,0,0,0,1.593,1.422A2.484,2.484,0,0,0,313.672,188.921Zm6.471-4.5H319.36l-1.341,4.168-1.36-4.168h-0.8l1.648,4.744h0.252a1.634,1.634,0,0,1-1.5,1.306l0.108,0.6a2.392,2.392,0,0,0,2.125-1.882Zm4.482-.1a1.712,1.712,0,0,0-1.414.765l-0.063-.666H322.5v6.653l0.756-.09v-2.26a1.61,1.61,0,0,0,1.261.54c1.233,0,1.827-1.035,1.827-2.475C326.344,185.3,325.885,184.321,324.625,184.321Zm-0.18.612c0.747,0,1.08.621,1.08,1.855,0,1.26-.4,1.845-1.179,1.845a1.305,1.305,0,0,1-1.09-.594v-2.35A1.528,1.528,0,0,1,324.445,184.933Zm4.958,2.125h3.187c0.009-.1.018-0.243,0.018-0.406,0-1.44-.738-2.331-1.935-2.331-1.261,0-2.062,1.044-2.062,2.476,0,1.476.783,2.466,2.17,2.466a2.7,2.7,0,0,0,1.62-.549l-0.351-.5a2.148,2.148,0,0,1-1.269.423A1.392,1.392,0,0,1,329.4,187.058Zm1.279-2.116c0.72,0,1.17.522,1.188,1.539H329.4A1.352,1.352,0,0,1,330.682,184.942Zm14.544-2.017h-4.051v1.081h1.287v4.069h-1.287v1.089h4.051v-1.089h-1.287v-4.069h1.287v-1.081Zm4.923-.594v2.341a1.464,1.464,0,0,0-1.081-.45c-1.179,0-1.908,1.062-1.908,2.539,0,1.539.567,2.556,1.755,2.556a1.569,1.569,0,0,0,1.324-.675l0.072,0.522h1.26v-6.68Zm-0.7,2.935a0.86,0.86,0,0,1,.7.4v2.062a0.941,0.941,0,0,1-.784.549c-0.432,0-.738-0.324-0.738-1.5C348.627,185.7,348.951,185.266,349.446,185.266Zm5.517,1.927h3.1a4.655,4.655,0,0,0,.027-0.514,2.182,2.182,0,0,0-2.242-2.457,2.553,2.553,0,0,0,.153,5.095,2.884,2.884,0,0,0,1.909-.657l-0.567-.774a2.275,2.275,0,0,1-1.225.4A1.078,1.078,0,0,1,354.963,187.193Zm0.882-2.017a0.932,0.932,0,0,1,.855,1.152h-1.755A0.991,0.991,0,0,1,355.845,185.176Zm8.209,2.611v-1.873c0-1.1-.666-1.692-2.089-1.692a5.668,5.668,0,0,0-1.863.36l0.324,0.945a4.669,4.669,0,0,1,1.314-.252,0.76,0.76,0,0,1,.945.738v0.171h-0.639c-1.476,0-2.332.595-2.332,1.63a1.48,1.48,0,0,0,1.621,1.5,2.032,2.032,0,0,0,1.566-.648,1.364,1.364,0,0,0,1.171.63l0.3-.936A0.488,0.488,0,0,1,364.054,187.787Zm-2.233.513a0.56,0.56,0,0,1-.639-0.585c0-.468.36-0.72,1.152-0.72h0.351v0.783A1.034,1.034,0,0,1,361.821,188.3Zm14.238-6.662c-1.008,0-1.944.306-1.827,1.4l0.189,1.729c0.063,0.612-.153.936-1.369,0.936v0.612c1.216,0,1.432.333,1.369,0.955l-0.189,1.71c-0.117,1.1.819,1.405,1.827,1.405v-0.6c-0.657,0-1.179-.153-1.125-0.72l0.18-1.845a0.921,0.921,0,0,0-.837-1.207,0.938,0.938,0,0,0,.837-1.206l-0.18-1.846c-0.054-.558.468-0.72,1.125-0.72v-0.6Zm-36.024,15.94,0.672-1.492h-0.6l-1.054,1.492-0.16.809h0.984Zm5.144-.687-0.672,1.5h0.6l1.058-1.5,0.16-.8h-0.984Zm5.616,0-0.672,1.5h0.6l1.059-1.5,0.16-.8h-0.985Zm-12.826,17.625,0.883-4.535H339.3a1.562,1.562,0,0,1,1.074.3,1.289,1.289,0,0,1,.32.984,5.485,5.485,0,0,1-.134,1.142,5.031,5.031,0,0,1-.346,1.073,1.739,1.739,0,0,1-.7.795,2.388,2.388,0,0,1-1.16.244h-0.379Zm0.219-5.184-1.137,5.832h1.183a3.568,3.568,0,0,0,1.643-.318,2.5,2.5,0,0,0,1.014-1.065,5.051,5.051,0,0,0,.441-1.191,5.514,5.514,0,0,0,.164-1.305,1.893,1.893,0,0,0-.529-1.468,2.3,2.3,0,0,0-1.6-.485h-1.183Zm9.272,1.633a1.062,1.062,0,0,0-.381-0.209,1.636,1.636,0,0,0-.5-0.072,1.817,1.817,0,0,0-.943.246,1.865,1.865,0,0,0-.678.715l0.157-.856h-0.719l-0.848,4.375h0.719l0.418-2.144a2.258,2.258,0,0,1,.605-1.225,1.6,1.6,0,0,1,1.627-.361,1.133,1.133,0,0,1,.408.258Zm2.152,1.625a1.948,1.948,0,0,1,.568-0.945,1.29,1.29,0,0,1,.877-0.352,0.937,0.937,0,0,1,.707.262,1,1,0,0,1,.254.73,1.2,1.2,0,0,1-.008.131,1.556,1.556,0,0,1-.031.174h-2.367Zm2.6,1.637a4.771,4.771,0,0,1-.853.33,2.883,2.883,0,0,1-.752.111,1.224,1.224,0,0,1-.875-0.285,1.085,1.085,0,0,1-.3-0.828,1.562,1.562,0,0,1,.012-0.18c0.008-.068.019-0.143,0.035-0.226h3.152c0.032-.2.054-0.371,0.067-0.5s0.019-.242.019-0.33a1.639,1.639,0,0,0-.435-1.194,1.55,1.55,0,0,0-1.162-.447,1.988,1.988,0,0,0-.819.176,2.33,2.33,0,0,0-.717.511,3.071,3.071,0,0,0-.648,1.012,3.2,3.2,0,0,0-.234,1.195,1.683,1.683,0,0,0,.453,1.272,1.839,1.839,0,0,0,1.324.436,3.827,3.827,0,0,0,.793-0.084,4.781,4.781,0,0,0,.8-0.252Zm5.1-1.262-0.031.16a2.16,2.16,0,0,1-.568,1.137,1.374,1.374,0,0,1-1,.414,0.756,0.756,0,0,1-.545-0.193,0.686,0.686,0,0,1-.2-0.518,0.925,0.925,0,0,1,.16-0.525,0.889,0.889,0,0,1,.425-0.346,1.55,1.55,0,0,1,.395-0.1,6.038,6.038,0,0,1,.691-0.029h0.672Zm0.848-.746a2.884,2.884,0,0,0,.023-0.328,1.068,1.068,0,0,0-.4-0.887,1.78,1.78,0,0,0-1.131-.32,3.658,3.658,0,0,0-.726.076,5.719,5.719,0,0,0-.8.228l-0.137.7a4.839,4.839,0,0,1,.822-0.3,2.9,2.9,0,0,1,.725-0.1,1.183,1.183,0,0,1,.7.178,0.59,0.59,0,0,1,.246.51,1.031,1.031,0,0,1,0,.109,0.548,0.548,0,0,1-.011.074l-0.047.239h-0.961a2.643,2.643,0,0,0-1.635.458,1.464,1.464,0,0,0-.6,1.225,1.115,1.115,0,0,0,.357.865,1.36,1.36,0,0,0,.955.327,1.75,1.75,0,0,0,.813-0.2,1.966,1.966,0,0,0,.664-0.564l-0.125.648H357.6l0.489-2.5C358.115,212.5,358.138,212.354,358.154,212.219Zm4.1-1.389a0.73,0.73,0,0,0-.473-0.146,0.932,0.932,0,0,0-.467.123,1.251,1.251,0,0,0-.388.357l0.074-.375h-0.656l-0.848,4.375h0.656l0.488-2.5a3.847,3.847,0,0,1,.334-1.142,0.512,0.512,0,0,1,.448-0.233,0.342,0.342,0,0,1,.283.114,0.552,0.552,0,0,1,.092.351,2.454,2.454,0,0,1-.033.311c-0.023.147-.058,0.347-0.108,0.6l-0.488,2.5h0.656l0.488-2.5a3.779,3.779,0,0,1,.332-1.123,0.518,0.518,0,0,1,.457-0.252,0.352,0.352,0,0,1,.289.11,0.558,0.558,0,0,1,.09.355,2.283,2.283,0,0,1-.037.322c-0.025.153-.06,0.349-0.107,0.588l-0.488,2.5H363.5l0.5-2.535c0.055-.279.094-0.506,0.117-0.684a3.732,3.732,0,0,0,.035-0.476,0.8,0.8,0,0,0-.2-0.572,0.7,0.7,0,0,0-.537-0.213,1.06,1.06,0,0,0-.545.142,1.075,1.075,0,0,0-.4.409A0.625,0.625,0,0,0,362.251,210.83Zm4.2,0.518h1.117l-0.629,3.258h-1.425l-0.114.558h3.571l0.113-.558H367.66l0.742-3.817h-1.839ZM367.836,210h0.719l0.175-.91h-0.718Zm7.2,2.071a2.615,2.615,0,0,0,.022-0.309,1.035,1.035,0,0,0-.3-0.791,1.183,1.183,0,0,0-.844-0.283,1.463,1.463,0,0,0-.724.191,2.139,2.139,0,0,0-.635.57l0.125-.656h-0.719l-0.855,4.375h0.718l0.481-2.472a2,2,0,0,1,.476-1.02,1.125,1.125,0,0,1,.844-0.363,0.733,0.733,0,0,1,.522.17,0.632,0.632,0,0,1,.181.486,2.231,2.231,0,0,1-.058.43c-0.006.026-.009,0.044-0.012,0.054l-0.527,2.715h0.718l0.528-2.711C375.006,212.318,375.026,212.189,375.04,212.067Zm2.74,2.267a1.091,1.091,0,0,1-.223-0.728,3.066,3.066,0,0,1,.412-1.655,1.192,1.192,0,0,1,1.014-.658,0.754,0.754,0,0,1,.609.26,1.092,1.092,0,0,1,.219.725,3.594,3.594,0,0,1-.107.851,3.307,3.307,0,0,1-.3.789,1.411,1.411,0,0,1-.44.5,0.993,0.993,0,0,1-.568.176A0.763,0.763,0,0,1,377.78,214.334Zm3.09-3.529h-0.719l-0.106.59a1.075,1.075,0,0,0-.429-0.522,1.262,1.262,0,0,0-.692-0.189,1.624,1.624,0,0,0-.84.242,2.163,2.163,0,0,0-.695.68,3.348,3.348,0,0,0-.437.951,3.819,3.819,0,0,0-.157,1.08,1.707,1.707,0,0,0,.356,1.139,1.189,1.189,0,0,0,.957.419,1.639,1.639,0,0,0,.769-0.177,1.525,1.525,0,0,0,.567-0.518l-0.094.457a1.963,1.963,0,0,1-.465,1.039,1.234,1.234,0,0,1-.9.313,2.181,2.181,0,0,1-.619-0.09,2.489,2.489,0,0,1-.592-0.262l-0.145.711a3.654,3.654,0,0,0,.6.16,3.576,3.576,0,0,0,.631.055,2.142,2.142,0,0,0,1.486-.471,2.7,2.7,0,0,0,.729-1.529Zm10.135,0.74a1.126,1.126,0,0,1,.218.756,3.1,3.1,0,0,1-.427,1.7,1.25,1.25,0,0,1-1.069.668,0.823,0.823,0,0,1-.656-0.252,1.126,1.126,0,0,1-.219-0.756,3.1,3.1,0,0,1,.428-1.7,1.249,1.249,0,0,1,1.068-.668A0.824,0.824,0,0,1,391.005,211.545Zm-1.561-.627a2.114,2.114,0,0,0-.744.688,3.685,3.685,0,0,0-.453.968,3.612,3.612,0,0,0-.16,1.055,1.736,1.736,0,0,0,.394,1.221,1.455,1.455,0,0,0,1.125.428,2.159,2.159,0,0,0,1.016-.231,2.044,2.044,0,0,0,.75-0.691,3.48,3.48,0,0,0,.449-0.959,3.706,3.706,0,0,0,.16-1.073,1.7,1.7,0,0,0-.4-1.222,1.54,1.54,0,0,0-1.166-.418A2.017,2.017,0,0,0,389.444,210.918Zm7.8-1.832a1.665,1.665,0,0,0-1.107.322,1.84,1.84,0,0,0-.526,1.077l-0.062.3h-1.16l-0.114.559h1.168l-0.742,3.816h0.719l0.746-3.816h1.5l0.1-.559h-1.5l0.082-.386a0.966,0.966,0,0,1,.265-0.557,0.834,0.834,0,0,1,.559-0.162h0.812l0.121-.6h-0.863Zm10.838,1.662a3.3,3.3,0,0,0-.66-0.064,2.243,2.243,0,0,0-1.39.392,1.26,1.26,0,0,0-.516,1.057,0.911,0.911,0,0,0,.236.652,1.519,1.519,0,0,0,.741.379l0.261,0.071c0.026,0.007.063,0.017,0.11,0.027a0.8,0.8,0,0,1,.765.59,0.7,0.7,0,0,1-.328.592,1.441,1.441,0,0,1-.848.232,2.325,2.325,0,0,1-.669-0.1,3.474,3.474,0,0,1-.713-0.31l-0.145.742a5.23,5.23,0,0,0,.731.205,3.351,3.351,0,0,0,.66.069,2.373,2.373,0,0,0,1.492-.436,1.375,1.375,0,0,0,.562-1.143,0.839,0.839,0,0,0-.226-0.6,1.421,1.421,0,0,0-.684-0.362l-0.281-.07-0.086-.023a0.9,0.9,0,0,1-.863-0.6,0.634,0.634,0,0,1,.3-0.558,1.469,1.469,0,0,1,.83-0.2,2.115,2.115,0,0,1,.607.092,2.334,2.334,0,0,1,.584.268l0.137-.7A2.824,2.824,0,0,0,408.084,210.748Zm5.386,0.8a1.126,1.126,0,0,1,.219.756,3.1,3.1,0,0,1-.428,1.7,1.249,1.249,0,0,1-1.068.668,0.821,0.821,0,0,1-.656-0.252,1.126,1.126,0,0,1-.219-0.756,3.1,3.1,0,0,1,.428-1.7,1.249,1.249,0,0,1,1.068-.668A0.821,0.821,0,0,1,413.47,211.545Zm-1.56-.627a2.1,2.1,0,0,0-.744.688,3.744,3.744,0,0,0-.614,2.023,1.736,1.736,0,0,0,.395,1.221,1.455,1.455,0,0,0,1.125.428,2.162,2.162,0,0,0,1.016-.231,2.044,2.044,0,0,0,.75-0.691,3.509,3.509,0,0,0,.449-0.959,3.741,3.741,0,0,0,.16-1.073,1.7,1.7,0,0,0-.4-1.222,1.537,1.537,0,0,0-1.166-.418A2.016,2.016,0,0,0,411.91,210.918Zm6.5-.088a0.728,0.728,0,0,0-.473-0.146,0.934,0.934,0,0,0-.467.123,1.251,1.251,0,0,0-.388.357l0.074-.375h-0.656l-0.848,4.375h0.656l0.489-2.5a3.785,3.785,0,0,1,.334-1.142,0.509,0.509,0,0,1,.447-0.233,0.342,0.342,0,0,1,.283.114,0.552,0.552,0,0,1,.092.351,2.454,2.454,0,0,1-.033.311c-0.023.147-.058,0.347-0.108,0.6l-0.488,2.5h0.656l0.488-2.5a3.779,3.779,0,0,1,.332-1.123,0.518,0.518,0,0,1,.458-0.252,0.354,0.354,0,0,1,.289.11,0.565,0.565,0,0,1,.089.355,2.283,2.283,0,0,1-.037.322q-0.036.229-.107,0.588l-0.488,2.5h0.656l0.5-2.535c0.055-.279.094-0.506,0.117-0.684a3.557,3.557,0,0,0,.035-0.476,0.8,0.8,0,0,0-.2-0.572,0.7,0.7,0,0,0-.537-0.213,1.06,1.06,0,0,0-.545.142,1.075,1.075,0,0,0-.4.409A0.621,0.621,0,0,0,418.415,210.83Zm4.21,1.76a1.955,1.955,0,0,1,.568-0.945,1.291,1.291,0,0,1,.877-0.352,0.937,0.937,0,0,1,.707.262,1,1,0,0,1,.254.73,0.99,0.99,0,0,1-.008.131,1.556,1.556,0,0,1-.031.174h-2.367Zm2.6,1.637a4.808,4.808,0,0,1-.854.33,2.883,2.883,0,0,1-.752.111,1.226,1.226,0,0,1-.875-0.285,1.089,1.089,0,0,1-.3-0.828,1.562,1.562,0,0,1,.012-0.18c0.008-.068.02-0.143,0.035-0.226h3.153c0.031-.2.053-0.371,0.066-0.5s0.02-.242.02-0.33a1.639,1.639,0,0,0-.436-1.194,1.548,1.548,0,0,0-1.162-.447,1.98,1.98,0,0,0-.818.176,2.307,2.307,0,0,0-.717.511,3.09,3.09,0,0,0-.649,1.012,3.2,3.2,0,0,0-.234,1.195,1.683,1.683,0,0,0,.453,1.272,1.841,1.841,0,0,0,1.324.436,3.827,3.827,0,0,0,.793-0.084,4.724,4.724,0,0,0,.8-0.252Zm4-4.68-0.242,1.242h-1.168l-0.11.559h1.168l-0.465,2.375c-0.023.122-.04,0.228-0.05,0.316a1.908,1.908,0,0,0-.016.231,0.77,0.77,0,0,0,.307.677,1.676,1.676,0,0,0,.959.217h0.871l0.113-.574h-0.809a1.031,1.031,0,0,1-.55-0.1,0.4,0.4,0,0,1-.153-0.361,1.547,1.547,0,0,1,.012-0.185c0.008-.067.02-0.139,0.035-0.217l0.465-2.375h1.633l0.109-.559h-1.629l0.239-1.242h-0.719Zm7.6,2.52a2.815,2.815,0,0,0,.021-0.309,1.032,1.032,0,0,0-.3-0.791,1.179,1.179,0,0,0-.843-0.283,1.466,1.466,0,0,0-.725.191,2.151,2.151,0,0,0-.635.57l0.453-2.359h-0.718l-1.184,6.078h0.719l0.48-2.472a1.992,1.992,0,0,1,.477-1.02,1.125,1.125,0,0,1,.844-0.363,0.732,0.732,0,0,1,.521.17,0.633,0.633,0,0,1,.182.486,2.248,2.248,0,0,1-.059.43q-0.007.039-.012,0.054l-0.527,2.715h0.719l0.527-2.711C436.786,212.318,436.806,212.189,436.821,212.067Zm2.645-.719h1.118l-0.629,3.258h-1.426l-0.113.558h3.57l0.113-.558h-1.426l0.743-3.817h-1.84ZM440.849,210h0.719l0.176-.91h-0.719Zm7.2,2.071a2.815,2.815,0,0,0,.021-0.309,1.032,1.032,0,0,0-.3-0.791,1.182,1.182,0,0,0-.844-0.283,1.465,1.465,0,0,0-.724.191,2.139,2.139,0,0,0-.635.57l0.125-.656h-0.719l-0.855,4.375h0.719l0.48-2.472a1.992,1.992,0,0,1,.477-1.02,1.123,1.123,0,0,1,.843-0.363,0.733,0.733,0,0,1,.522.17,0.633,0.633,0,0,1,.182.486,2.248,2.248,0,0,1-.059.43q-0.007.039-.012,0.054l-0.527,2.715h0.719l0.527-2.711C448.019,212.318,448.039,212.189,448.054,212.067Zm2.739,2.267a1.1,1.1,0,0,1-.223-0.728,3.075,3.075,0,0,1,.412-1.655,1.192,1.192,0,0,1,1.014-.658,0.753,0.753,0,0,1,.609.26,1.092,1.092,0,0,1,.219.725,3.594,3.594,0,0,1-.107.851,3.265,3.265,0,0,1-.3.789,1.409,1.409,0,0,1-.439.5,1,1,0,0,1-.569.176A0.763,0.763,0,0,1,450.793,214.334Zm3.09-3.529h-0.719l-0.1.59a1.082,1.082,0,0,0-.43-0.522,1.258,1.258,0,0,0-.691-0.189,1.619,1.619,0,0,0-.84.242,2.156,2.156,0,0,0-.7.68,3.348,3.348,0,0,0-.437.951,3.854,3.854,0,0,0-.156,1.08,1.707,1.707,0,0,0,.355,1.139,1.189,1.189,0,0,0,.957.419,1.643,1.643,0,0,0,.77-0.177,1.53,1.53,0,0,0,.566-0.518l-0.094.457A1.963,1.963,0,0,1,451.9,216a1.234,1.234,0,0,1-.9.313,2.187,2.187,0,0,1-.619-0.09,2.489,2.489,0,0,1-.592-0.262l-0.144.711a3.616,3.616,0,0,0,.6.16,3.576,3.576,0,0,0,.631.055,2.141,2.141,0,0,0,1.486-.471,2.7,2.7,0,0,0,.729-1.529Zm9.463,0.025a0.728,0.728,0,0,0-.473-0.146,0.928,0.928,0,0,0-.466.123,1.254,1.254,0,0,0-.389.357l0.074-.375h-0.656l-0.848,4.375h0.657l0.488-2.5a3.785,3.785,0,0,1,.334-1.142,0.509,0.509,0,0,1,.447-0.233,0.341,0.341,0,0,1,.283.114,0.552,0.552,0,0,1,.092.351,2.454,2.454,0,0,1-.033.311q-0.033.22-.108,0.6l-0.488,2.5h0.656l0.489-2.5a3.748,3.748,0,0,1,.332-1.123,0.515,0.515,0,0,1,.457-0.252,0.353,0.353,0,0,1,.289.11,0.558,0.558,0,0,1,.09.355,2.448,2.448,0,0,1-.037.322q-0.037.229-.108,0.588l-0.488,2.5H464.6l0.5-2.535c0.055-.279.094-0.506,0.117-0.684a3.572,3.572,0,0,0,.036-0.476,0.8,0.8,0,0,0-.2-0.572,0.7,0.7,0,0,0-.537-0.213,1.063,1.063,0,0,0-.545.142,1.082,1.082,0,0,0-.4.409A0.621,0.621,0,0,0,463.346,210.83Zm6.288,0.715a1.126,1.126,0,0,1,.219.756,3.09,3.09,0,0,1-.428,1.7,1.249,1.249,0,0,1-1.068.668,0.821,0.821,0,0,1-.656-0.252,1.126,1.126,0,0,1-.219-0.756,3.1,3.1,0,0,1,.428-1.7,1.249,1.249,0,0,1,1.068-.668A0.821,0.821,0,0,1,469.634,211.545Zm-1.56-.627a2.1,2.1,0,0,0-.744.688,3.744,3.744,0,0,0-.614,2.023,1.736,1.736,0,0,0,.395,1.221,1.455,1.455,0,0,0,1.125.428,2.162,2.162,0,0,0,1.016-.231,2.044,2.044,0,0,0,.75-0.691,3.509,3.509,0,0,0,.449-0.959,3.706,3.706,0,0,0,.16-1.073,1.7,1.7,0,0,0-.4-1.222,1.54,1.54,0,0,0-1.166-.418A2.017,2.017,0,0,0,468.074,210.918Zm8.563,0.047a1.066,1.066,0,0,0-.38-0.209,1.641,1.641,0,0,0-.5-0.072,1.821,1.821,0,0,0-.944.246,1.855,1.855,0,0,0-.677.715l0.156-.856h-0.719l-0.848,4.375h0.719l0.418-2.144a2.252,2.252,0,0,1,.606-1.225,1.511,1.511,0,0,1,1.1-.447,1.53,1.53,0,0,1,.53.086,1.142,1.142,0,0,1,.408.258Zm2.152,1.625a1.955,1.955,0,0,1,.568-0.945,1.291,1.291,0,0,1,.877-0.352,0.937,0.937,0,0,1,.707.262,1,1,0,0,1,.254.73,1.188,1.188,0,0,1-.007.131c-0.006.046-.016,0.1-0.032,0.174h-2.367Zm2.6,1.637a4.808,4.808,0,0,1-.854.33,2.883,2.883,0,0,1-.752.111,1.226,1.226,0,0,1-.875-0.285,1.089,1.089,0,0,1-.3-0.828,1.562,1.562,0,0,1,.012-0.18c0.008-.068.02-0.143,0.035-0.226h3.153c0.031-.2.053-0.371,0.066-0.5s0.02-.242.02-0.33a1.639,1.639,0,0,0-.436-1.194,1.548,1.548,0,0,0-1.162-.447,1.98,1.98,0,0,0-.818.176,2.307,2.307,0,0,0-.717.511,3.09,3.09,0,0,0-.649,1.012,3.2,3.2,0,0,0-.234,1.195,1.683,1.683,0,0,0,.453,1.272,1.841,1.841,0,0,0,1.324.436,3.82,3.82,0,0,0,.793-0.084,4.724,4.724,0,0,0,.8-0.252Zm4.179-1.11a1.613,1.613,0,0,1,.175-0.535,2.03,2.03,0,0,1,.446-0.472l0.41-.336a3.231,3.231,0,0,0,.7-0.737,1.3,1.3,0,0,0,.19-0.681,1.016,1.016,0,0,0-.377-0.811,1.463,1.463,0,0,0-.975-0.318,2.938,2.938,0,0,0-.789.109,4.212,4.212,0,0,0-.82.332l-0.141.735a4.09,4.09,0,0,1,.8-0.4,2.081,2.081,0,0,1,.693-0.139,1.008,1.008,0,0,1,.606.161,0.523,0.523,0,0,1,.219.449,0.8,0.8,0,0,1-.139.435,2.413,2.413,0,0,1-.471.5l-0.418.356a2.753,2.753,0,0,0-.592.621,1.975,1.975,0,0,0-.224.609l-0.11.6h0.743Zm-1.161,2.047h0.8l0.192-.992h-0.793Zm-144.37,8.414,0.672-1.492h-0.6l-1.054,1.492-0.16.809h0.984Zm5.144-.687-0.672,1.5h0.6l1.058-1.5,0.16-.8h-0.984Zm5.616,0-0.672,1.5h0.6l1.059-1.5,0.16-.8h-0.985Zm-13.543,17.724c-0.82,0-1.414-.531-1.414-1.8,0-1.252.585-1.855,1.4-1.855a2.174,2.174,0,0,1,1.224.414l0.369-.5a2.4,2.4,0,0,0-1.584-.558,2.24,2.24,0,0,0-2.233,2.494,2.167,2.167,0,0,0,2.233,2.448,2.586,2.586,0,0,0,1.593-.567l-0.36-.5A2.157,2.157,0,0,1,337.252,240.615Zm7.353-4.294a1.769,1.769,0,0,0-1.7,1.224l-0.144-1.125h-1.314v0.585h0.747v3.574h-0.747v0.585h2.467v-0.585h-0.964v-2c0.306-1.044.829-1.566,1.558-1.566h0.045v1.017h0.612l0.108-1.611A2.468,2.468,0,0,0,344.605,236.321Zm3.7,2.737h3.187c0.009-.1.018-0.243,0.018-0.406,0-1.44-.738-2.331-1.936-2.331-1.26,0-2.061,1.044-2.061,2.476,0,1.476.783,2.466,2.169,2.466a2.7,2.7,0,0,0,1.621-.549l-0.351-.5a2.149,2.149,0,0,1-1.27.423A1.392,1.392,0,0,1,348.3,239.058Zm1.278-2.116c0.721,0,1.171.522,1.189,1.539H348.3A1.351,1.351,0,0,1,349.581,236.942Zm7.822,3.187v-2.278a1.507,1.507,0,0,0-1.774-1.53,4.626,4.626,0,0,0-1.557.3l0.207,0.576a3.878,3.878,0,0,1,1.233-.243,0.916,0.916,0,0,1,1.125.945v0.387h-0.7c-1.431,0-2.214.55-2.214,1.522a1.391,1.391,0,0,0,1.53,1.458,1.82,1.82,0,0,0,1.486-.666,0.941,0.941,0,0,0,.864.675l0.189-.54A0.51,0.51,0,0,1,357.4,240.129Zm-1.963.567a0.8,0.8,0,0,1-.909-0.9c0-.612.378-0.99,1.422-0.99h0.684v1.215A1.45,1.45,0,0,1,355.44,240.7Zm8.632,0.225-0.3-.513a1.916,1.916,0,0,1-.91.225,0.748,0.748,0,0,1-.909-0.8v-2.818h1.549l0.1-.594h-1.648v-1.162l-0.756.09v1.072h-1.089v0.594H361.2v2.827a1.412,1.412,0,0,0,1.593,1.422A2.488,2.488,0,0,0,364.072,240.921Zm3.131-1.863h3.187c0.009-.1.018-0.243,0.018-0.406,0-1.44-.739-2.331-1.936-2.331-1.26,0-2.062,1.044-2.062,2.476,0,1.476.784,2.466,2.17,2.466a2.709,2.709,0,0,0,1.621-.549l-0.352-.5a2.148,2.148,0,0,1-1.269.423A1.392,1.392,0,0,1,367.2,239.058Zm1.278-2.116c0.72,0,1.17.522,1.188,1.539H367.2A1.351,1.351,0,0,1,368.481,236.942Zm5.49,0.342a0.725,0.725,0,1,0,1.449,0A0.725,0.725,0,0,0,373.971,237.284Zm0,3.25a0.725,0.725,0,1,0,1.449,0A0.725,0.725,0,1,0,373.971,240.534Zm15.814-3.574c0-1.368-.964-2.035-2.665-2.035h-1.963v6.239h1.477v-2.079h0.684C388.785,239.085,389.785,238.409,389.785,236.96Zm-1.513,0a0.94,0.94,0,0,1-1.053,1.062h-0.585v-2.043h0.513A0.932,0.932,0,0,1,388.272,236.96Zm6.9-.72a1.681,1.681,0,0,0-1.629,1.215l-0.252-1.071h-1.72v0.945h0.63v2.881h-0.63v0.954h3V240.21h-0.945v-1.368a1.719,1.719,0,0,1,1.179-1.333v0.873h0.9l0.261-2A2.041,2.041,0,0,0,395.175,236.24Zm4.725-.018a2.273,2.273,0,0,0-2.323,2.548,2.333,2.333,0,1,0,4.645-.009A2.256,2.256,0,0,0,399.9,236.222Zm0,1.053c0.585,0,.855.45,0.855,1.486,0,1.071-.27,1.512-0.855,1.512s-0.856-.441-0.856-1.5C399.044,237.725,399.314,237.275,399.9,237.275Zm6.93-3.394a0.8,0.8,0,1,0,.837.8A0.8,0.8,0,0,0,406.83,233.881Zm0.918,2.5h-3.133v0.972h1.711v2.512c0,1.386-.748,1.881-2.2,2.205l0.216,1.09c2.233-.441,3.4-1.315,3.4-3.385v-3.394Zm3.914,2.809h3.1a4.655,4.655,0,0,0,.027-0.514,2.181,2.181,0,0,0-2.241-2.457,2.553,2.553,0,0,0,.153,5.095,2.883,2.883,0,0,0,1.908-.657l-0.567-.774a2.272,2.272,0,0,1-1.224.4A1.078,1.078,0,0,1,411.662,239.193Zm0.883-2.017a0.932,0.932,0,0,1,.855,1.152h-1.756A0.991,0.991,0,0,1,412.545,237.176Zm6.723,3.016c-0.613,0-1.063-.324-1.063-1.386,0-1.081.423-1.486,1.072-1.486a1.867,1.867,0,0,1,1.071.36l0.612-.855a2.588,2.588,0,0,0-1.746-.6,2.4,2.4,0,0,0-2.494,2.584,2.323,2.323,0,0,0,2.467,2.511,2.725,2.725,0,0,0,1.773-.63l-0.63-.9A1.878,1.878,0,0,1,419.268,240.192Zm8.064,0.693-0.468-.909a1.693,1.693,0,0,1-.837.216,0.571,0.571,0,0,1-.685-0.657v-2.17h1.4l0.144-.981h-1.54v-1.207l-1.422.171v1.036h-1v0.981h1v2.17a1.632,1.632,0,0,0,1.846,1.782A2.885,2.885,0,0,0,427.332,240.885Zm4.472-5.924h-0.846l0.09,4.16h0.675Zm-0.414,5.1a0.6,0.6,0,0,0,0,1.206A0.6,0.6,0,0,0,431.39,240.057Zm-121.049,6.581v0.6c0.658,0,1.18.162,1.126,0.72l-0.18,1.846a0.965,0.965,0,0,0,.936,1.215,0.922,0.922,0,0,0-.936,1.2l0.18,1.845c0.054,0.567-.468.72-1.126,0.72v0.6c1.009,0,1.945-.307,1.828-1.405l-0.189-1.71c-0.063-.622.252-0.955,1.368-0.955v-0.612c-1.107,0-1.431-.324-1.368-0.936l0.189-1.729C312.286,246.944,311.35,246.638,310.341,246.638Zm3.331,33.283-0.3-.513a1.912,1.912,0,0,1-.909.225,0.748,0.748,0,0,1-.909-0.8v-2.818h1.548l0.1-.594h-1.647v-1.162l-0.756.09v1.072h-1.09v0.594h1.09v2.827a1.412,1.412,0,0,0,1.593,1.422A2.484,2.484,0,0,0,313.672,279.921Zm6.471-4.5H319.36l-1.341,4.168-1.36-4.168h-0.8l1.648,4.744h0.252a1.634,1.634,0,0,1-1.5,1.306l0.108,0.6a2.392,2.392,0,0,0,2.125-1.882Zm4.482-.1a1.712,1.712,0,0,0-1.414.765l-0.063-.666H322.5v6.653l0.756-.09v-2.26a1.61,1.61,0,0,0,1.261.54c1.233,0,1.827-1.035,1.827-2.475C326.344,276.3,325.885,275.321,324.625,275.321Zm-0.18.612c0.747,0,1.08.621,1.08,1.855,0,1.26-.4,1.845-1.179,1.845a1.305,1.305,0,0,1-1.09-.594v-2.35A1.528,1.528,0,0,1,324.445,275.933Zm4.958,2.125h3.187c0.009-.1.018-0.243,0.018-0.406,0-1.44-.738-2.331-1.935-2.331-1.261,0-2.062,1.044-2.062,2.476,0,1.476.783,2.466,2.17,2.466a2.7,2.7,0,0,0,1.62-.549l-0.351-.5a2.148,2.148,0,0,1-1.269.423A1.392,1.392,0,0,1,329.4,278.058Zm1.279-2.116c0.72,0,1.17.522,1.188,1.539H329.4A1.352,1.352,0,0,1,330.682,275.942Zm15,0.018c0-1.368-.963-2.035-2.665-2.035h-1.962v6.239h1.476v-2.079h0.684C344.686,278.085,345.685,277.409,345.685,275.96Zm-1.512,0a0.941,0.941,0,0,1-1.054,1.062h-0.585v-2.043h0.513A0.933,0.933,0,0,1,344.173,275.96Zm6.9-.72a1.682,1.682,0,0,0-1.63,1.215l-0.252-1.071h-1.719v0.945h0.63v2.881h-0.63v0.954h3V279.21h-0.946v-1.368a1.72,1.72,0,0,1,1.18-1.333v0.873h0.9l0.261-2A2.041,2.041,0,0,0,351.076,275.24Zm4.724-.018a2.272,2.272,0,0,0-2.322,2.548,2.333,2.333,0,1,0,4.645-.009A2.256,2.256,0,0,0,355.8,275.222Zm0,1.053c0.585,0,.855.45,0.855,1.486,0,1.071-.27,1.512-0.855,1.512s-0.855-.441-0.855-1.5C354.945,276.725,355.215,276.275,355.8,276.275Zm6.93-3.394a0.8,0.8,0,1,0,.838.8A0.8,0.8,0,0,0,362.73,272.881Zm0.919,2.5h-3.133v0.972h1.71v2.512c0,1.386-.747,1.881-2.2,2.2l0.216,1.09c2.232-.441,3.4-1.315,3.4-3.385v-3.394Zm3.914,2.809h3.1a4.655,4.655,0,0,0,.027-0.514,2.182,2.182,0,0,0-2.242-2.457,2.553,2.553,0,0,0,.153,5.1,2.886,2.886,0,0,0,1.909-.657l-0.567-.774a2.278,2.278,0,0,1-1.225.4A1.078,1.078,0,0,1,367.563,278.193Zm0.882-2.017a0.932,0.932,0,0,1,.855,1.152h-1.755A0.991,0.991,0,0,1,368.445,276.176Zm6.723,3.016c-0.612,0-1.062-.324-1.062-1.386,0-1.081.423-1.486,1.071-1.486a1.867,1.867,0,0,1,1.071.36l0.613-.855a2.593,2.593,0,0,0-1.747-.6,2.406,2.406,0,0,0-2.494,2.584,2.323,2.323,0,0,0,2.467,2.511,2.728,2.728,0,0,0,1.774-.63l-0.631-.9A1.878,1.878,0,0,1,375.168,279.192Zm8.065,0.693-0.469-.909a1.693,1.693,0,0,1-.837.216,0.571,0.571,0,0,1-.684-0.657v-2.17h1.395l0.144-.981h-1.539v-1.207l-1.422.171v1.036h-1v0.981h1v2.17a1.632,1.632,0,0,0,1.845,1.782A2.892,2.892,0,0,0,383.233,279.885Zm11.726-7.247c-1.008,0-1.944.306-1.827,1.4l0.189,1.729c0.063,0.612-.153.936-1.369,0.936v0.612c1.216,0,1.432.333,1.369,0.955l-0.189,1.71c-0.117,1.1.819,1.405,1.827,1.405v-0.6c-0.657,0-1.179-.153-1.125-0.72l0.18-1.845a0.921,0.921,0,0,0-.837-1.207,0.938,0.938,0,0,0,.837-1.206l-0.18-1.846c-0.054-.558.468-0.72,1.125-0.72v-0.6Zm-57.734,15.683a1.71,1.71,0,0,0-1.414.765l-0.063-.666H335.1v6.653l0.756-.09v-2.26a1.609,1.609,0,0,0,1.261.54c1.233,0,1.827-1.035,1.827-2.475C338.944,289.3,338.485,288.321,337.225,288.321Zm-0.18.612c0.747,0,1.08.621,1.08,1.855,0,1.26-.4,1.845-1.18,1.845a1.3,1.3,0,0,1-1.089-.594v-2.35A1.526,1.526,0,0,1,337.045,288.933Zm6.164-.612c-1.332,0-2.052,1.017-2.052,2.476,0,1.494.711,2.466,2.043,2.466s2.044-1.017,2.044-2.475C345.244,289.293,344.542,288.321,343.209,288.321Zm0,0.621c0.811,0,1.216.594,1.216,1.846,0,1.269-.405,1.854-1.225,1.854s-1.224-.585-1.224-1.845S342.39,288.942,343.209,288.942Zm8.011,4.222,0.819-4.744H351.31L350.7,292.7l-0.712-3.673H349.1l-0.756,3.673-0.612-4.276h-0.765l0.855,4.744h1.044l0.666-3.475,0.622,3.475h1.071Zm3.383-2.106h3.187c0.009-.1.018-0.243,0.018-0.406,0-1.44-.738-2.331-1.936-2.331-1.26,0-2.061,1.044-2.061,2.476,0,1.476.783,2.466,2.169,2.466a2.707,2.707,0,0,0,1.621-.549l-0.351-.5a2.151,2.151,0,0,1-1.27.423A1.392,1.392,0,0,1,354.6,291.058Zm1.278-2.116c0.72,0,1.171.522,1.189,1.539H354.6A1.351,1.351,0,0,1,355.881,288.942Zm7.624-.621a1.768,1.768,0,0,0-1.7,1.224l-0.144-1.125h-1.314v0.585h0.747v3.574h-0.747v0.585h2.466v-0.585h-0.963v-2c0.306-1.044.828-1.566,1.558-1.566h0.045v1.017h0.612l0.108-1.611A2.468,2.468,0,0,0,363.505,288.321Zm3.7,2.737h3.187c0.009-.1.018-0.243,0.018-0.406,0-1.44-.739-2.331-1.936-2.331-1.26,0-2.062,1.044-2.062,2.476,0,1.476.784,2.466,2.17,2.466a2.709,2.709,0,0,0,1.621-.549l-0.352-.5a2.148,2.148,0,0,1-1.269.423A1.392,1.392,0,0,1,367.2,291.058Zm1.278-2.116c0.72,0,1.17.522,1.188,1.539H367.2A1.351,1.351,0,0,1,368.481,288.942Zm7.263-2.521v2.467a1.6,1.6,0,0,0-1.278-.567c-1.161,0-1.855,1.053-1.855,2.476,0,1.476.568,2.466,1.81,2.466a1.6,1.6,0,0,0,1.341-.72l0.072,0.621H376.5v-6.653Zm-1.08,2.512a1.287,1.287,0,0,1,1.08.612V291.9a1.427,1.427,0,0,1-1.17.756c-0.747,0-1.143-.63-1.143-1.863C373.431,289.545,373.881,288.933,374.664,288.933Zm8.5,2.467a1.479,1.479,0,0,0-1.432-1.522,1.358,1.358,0,0,0,1.161-1.35c0-1.216-1.107-1.567-2.2-1.567h-1.531v6.2h1.675C381.972,293.164,383.161,292.75,383.161,291.4Zm-1.072-2.827a0.96,0.96,0,0,1-1.143,1.026h-1v-2h0.927A0.979,0.979,0,0,1,382.089,288.573Zm0.243,2.854a1.128,1.128,0,0,1-1.359,1.089h-1.026v-2.269H381A1.109,1.109,0,0,1,382.332,291.427Zm7.11-3.007h-0.783l-1.341,4.168-1.36-4.168h-0.8l1.648,4.744h0.252a1.633,1.633,0,0,1-1.5,1.306l0.108,0.6a2.392,2.392,0,0,0,2.125-1.882Zm3.429,0.864a0.725,0.725,0,1,0,1.449,0A0.725,0.725,0,0,0,392.871,289.284Zm0,3.25a0.725,0.725,0,1,0,1.449,0A0.725,0.725,0,1,0,392.871,292.534Zm15.678-3.709c0-1.3-.864-1.9-2.565-1.9h-1.963v6.239H405.5v-2.385h0.414l1.351,2.385h1.674l-1.629-2.629A1.789,1.789,0,0,0,408.549,288.825Zm-1.521,0a0.841,0.841,0,0,1-.981.936H405.5v-1.8h0.487A0.843,0.843,0,0,1,407.028,288.825Zm7.425,2.962v-1.873c0-1.1-.666-1.692-2.089-1.692a5.668,5.668,0,0,0-1.863.36l0.324,0.945a4.669,4.669,0,0,1,1.314-.252,0.76,0.76,0,0,1,.946.738v0.171h-0.64c-1.476,0-2.331.595-2.331,1.63a1.479,1.479,0,0,0,1.62,1.5,2.034,2.034,0,0,0,1.567-.648,1.362,1.362,0,0,0,1.17.63l0.3-.936A0.488,0.488,0,0,1,414.453,291.787Zm-2.233.513a0.56,0.56,0,0,1-.639-0.585c0-.468.36-0.72,1.153-0.72h0.351v0.783A1.035,1.035,0,0,1,412.22,292.3Zm6.57-6.419a0.8,0.8,0,1,0,0,1.6A0.8,0.8,0,1,0,418.79,285.881Zm0.856,2.5h-2.728v0.972h1.305v2.836h-1.35v0.972h4v-0.972h-1.224v-3.808Zm5.876-1.9H422.7v0.973h1.4v4.024a1.58,1.58,0,0,0,1.675,1.836,2.85,2.85,0,0,0,1.377-.315l-0.333-.954a1.816,1.816,0,0,1-.684.144,0.507,0.507,0,0,1-.613-0.531v-5.177Zm8.11,6.4-0.468-.909a1.693,1.693,0,0,1-.837.216,0.571,0.571,0,0,1-.685-0.657v-2.17h1.4l0.144-.981h-1.54v-1.207l-1.422.171v1.036h-1v0.981h1v2.17a1.632,1.632,0,0,0,1.845,1.782A2.886,2.886,0,0,0,433.632,292.885Zm-96.732,6.32a0.531,0.531,0,1,0,0,1.062A0.532,0.532,0,1,0,336.9,299.205Zm0.6,2.215h-2.17v0.6h1.413v3.538h-1.458v0.6h3.547v-0.6H337.5V301.42Zm7.02-.1a1.223,1.223,0,0,0-1.045.63,0.818,0.818,0,0,0-.855-0.63,1.226,1.226,0,0,0-1.026.657l-0.054-.558h-0.585v4.744h0.693v-3.682a1,1,0,0,1,.828-0.567c0.342,0,.369.243,0.369,0.846v3.4h0.7v-3.682a1.009,1.009,0,0,1,.829-0.567c0.342,0,.369.243,0.369,0.846v3.4h0.693v-3.529C345.442,301.546,344.983,301.321,344.524,301.321Zm5.3,0a1.71,1.71,0,0,0-1.413.765l-0.063-.666H347.7v6.653l0.756-.09v-2.26a1.608,1.608,0,0,0,1.26.54c1.234,0,1.828-1.035,1.828-2.475C351.544,302.3,351.085,301.321,349.824,301.321Zm-0.18.612c0.748,0,1.081.621,1.081,1.855,0,1.26-.4,1.845-1.18,1.845a1.3,1.3,0,0,1-1.089-.594v-2.35A1.526,1.526,0,0,1,349.644,301.933Zm6.21-2.422H353.64v0.6H355.1v4.844a1.266,1.266,0,0,0,1.4,1.3,2.43,2.43,0,0,0,1.126-.243l-0.2-.549a2.185,2.185,0,0,1-.793.162,0.643,0.643,0,0,1-.783-0.639v-5.483Zm5.049,4.547h3.187c0.009-.1.018-0.243,0.018-0.406,0-1.44-.738-2.331-1.936-2.331-1.26,0-2.061,1.044-2.061,2.476,0,1.476.783,2.466,2.169,2.466a2.707,2.707,0,0,0,1.621-.549l-0.351-.5a2.154,2.154,0,0,1-1.27.423A1.392,1.392,0,0,1,360.9,304.058Zm1.278-2.116c0.72,0,1.171.522,1.189,1.539H360.9A1.351,1.351,0,0,1,362.181,301.942Zm7.542-.621a1.22,1.22,0,0,0-1.044.63,0.818,0.818,0,0,0-.855-0.63,1.226,1.226,0,0,0-1.026.657l-0.054-.558h-0.586v4.744h0.694v-3.682a1,1,0,0,1,.828-0.567c0.342,0,.369.243,0.369,0.846v3.4h0.7v-3.682a1.006,1.006,0,0,1,.828-0.567c0.343,0,.37.243,0.37,0.846v3.4h0.693v-3.529C370.642,301.546,370.183,301.321,369.723,301.321Zm3.78,2.737h3.187c0.009-.1.018-0.243,0.018-0.406,0-1.44-.739-2.331-1.936-2.331-1.26,0-2.062,1.044-2.062,2.476,0,1.476.784,2.466,2.17,2.466a2.709,2.709,0,0,0,1.621-.549l-0.352-.5a2.148,2.148,0,0,1-1.269.423A1.392,1.392,0,0,1,373.5,304.058Zm1.278-2.116c0.72,0,1.17.522,1.188,1.539H373.5A1.351,1.351,0,0,1,374.781,301.942Zm4.418,4.222h0.757v-3.448a1.667,1.667,0,0,1,1.287-.792c0.711,0,.81.387,0.81,1.359v2.881h0.756v-3.439a1.216,1.216,0,0,0-1.332-1.4,2.059,2.059,0,0,0-1.566.765l-0.063-.666H379.2v4.744Zm10.072-.243-0.3-.513a1.912,1.912,0,0,1-.909.225,0.748,0.748,0,0,1-.909-0.8v-2.818H388.7l0.1-.594h-1.647v-1.162l-0.756.09v1.072h-1.09v0.594h1.09v2.827a1.412,1.412,0,0,0,1.593,1.422A2.484,2.484,0,0,0,389.271,305.921Zm3.131-1.863h3.187c0.009-.1.018-0.243,0.018-0.406,0-1.44-.738-2.331-1.935-2.331-1.261,0-2.062,1.044-2.062,2.476,0,1.476.783,2.466,2.17,2.466a2.7,2.7,0,0,0,1.62-.549l-0.351-.5a2.148,2.148,0,0,1-1.269.423A1.393,1.393,0,0,1,392.4,304.058Zm1.279-2.116c0.72,0,1.17.522,1.188,1.539H392.4A1.352,1.352,0,0,1,393.681,301.942Zm7.263-2.521v2.467a1.6,1.6,0,0,0-1.278-.567c-1.162,0-1.855,1.053-1.855,2.476,0,1.476.567,2.466,1.81,2.466a1.6,1.6,0,0,0,1.341-.72l0.072,0.621H401.7v-6.653Zm-1.08,2.512a1.287,1.287,0,0,1,1.08.612V304.9a1.427,1.427,0,0,1-1.17.756c-0.748,0-1.144-.63-1.144-1.863C398.63,302.545,399.08,301.933,399.864,301.933Zm8.5,2.467a1.479,1.479,0,0,0-1.431-1.522,1.358,1.358,0,0,0,1.161-1.35c0-1.216-1.107-1.567-2.2-1.567h-1.53v6.2h1.675C407.172,306.164,408.36,305.75,408.36,304.4Zm-1.071-2.827a0.96,0.96,0,0,1-1.143,1.026h-1v-2h0.928A0.979,0.979,0,0,1,407.289,301.573Zm0.243,2.854a1.128,1.128,0,0,1-1.359,1.089h-1.027v-2.269H406.2A1.109,1.109,0,0,1,407.532,304.427Zm7.11-3.007h-0.783l-1.342,4.168-1.359-4.168h-0.8L412,306.164h0.252a1.632,1.632,0,0,1-1.5,1.306l0.108,0.6a2.393,2.393,0,0,0,2.125-1.882Zm3.428,0.864a0.725,0.725,0,1,0,1.45,0A0.725,0.725,0,0,0,418.07,302.284Zm0,3.25a0.725,0.725,0,1,0,1.45,0A0.725,0.725,0,1,0,418.07,305.534Zm14.067-1.71,2.035-3.9h-1.557l-1.189,2.683-1.179-2.683h-1.621l2.035,3.908v2.331h1.476v-2.34Zm5.562-2.6a2.273,2.273,0,0,0-2.323,2.548,2.333,2.333,0,1,0,4.646-.009A2.256,2.256,0,0,0,437.7,301.222Zm0,1.053c0.585,0,.855.45,0.855,1.486,0,1.071-.27,1.512-0.855,1.512s-0.855-.441-0.855-1.5C436.844,302.725,437.114,302.275,437.7,302.275Zm5.652-.891h-1.423v3.448a1.291,1.291,0,0,0,1.369,1.485,1.768,1.768,0,0,0,1.467-.711l0.063,0.558h1.243v-4.78h-1.423v3.358a1.019,1.019,0,0,1-.81.522c-0.306,0-.486-0.144-0.486-0.612v-3.268Zm-133.01,10.254v0.6c0.658,0,1.18.162,1.126,0.72l-0.18,1.846a0.965,0.965,0,0,0,.936,1.215,0.922,0.922,0,0,0-.936,1.2l0.18,1.845c0.054,0.567-.468.72-1.126,0.72v0.6c1.009,0,1.945-.307,1.828-1.405l-0.189-1.71c-0.063-.622.252-0.955,1.368-0.955v-0.612c-1.107,0-1.431-.324-1.368-0.936l0.189-1.729C312.286,311.944,311.35,311.638,310.341,311.638Z"/>
                    </g>
                </g>
                <g id="rykbwQ2EnoM_HJDYlB2of">
                    <g id="rykbwQ2EnoM">
                        <g id="HyxWP734nsG_SJMUxSnsM">
                            <g id="HyxWP734nsG_BJrmgHnoM">
                                <rect id="HyxWP734nsG" x="298" y="244" width="226" height="4"/>
                            </g>
                        </g>
                        <g id="rkWZw73V3sG_r1EtyHnoz">
                            <circle id="rkWZw73V3sG" cx="414" cy="246" r="33"/>
                        </g>
                        <circle id="SkM-vXnN3sG" cx="414" cy="246" r="17"/>
                    </g>
                </g>
                <g id="BJ4WPQ24hof">
                    <circle id="rkrZDQ343oM" cx="521.5" cy="161.5" r="2.5"/>
                    <circle id="SJIWvm3E2iM" cx="512.5" cy="161.5" r="2.5"/>
                    <circle id="BywbP7nEniG" cx="503.5" cy="161.5" r="2.5"/>
                </g>
            </g>
        </g>
    </g>
</svg>
