<svg xmlns="http://www.w3.org/2000/svg" width="862" height="248" viewBox="0 0 862 248">
  <circle style="fill: #65429a;" cx="124" cy="124" r="84"/>
  <circle style="fill: #fff;" cx="124" cy="124" r="44"/>
  <path style="fill: #65429a;" d="M326.263,197.817h22.145l-39.989-66.864c21.069-6.235,32.249-18.49,32.249-39.559,0-27.3-18.92-41.494-55.469-41.494L248,50V198l16-1V134l28.144,0.178ZM264,120V65l20.984-.481c25.155,0,35.9,8.17,35.9,26.875,0,20.424-12.254,28.379-33.539,28.379Zm212.978,77.817h19.78L449.028,49.9H425.379L377.435,197.817h18.919l11.61-37.839h57.619Zm-64.5-53.1,24.3-79.334,24.079,79.334H412.479ZM559,28l-17,6V223l17-6V28Zm85,21-18,2V198l75.8-.183,4.15-18.34L642,182Zm178.266,0.9L719,50V65h42V199l16-2,1-132h42Z"/>
  <path style="fill: #65429a; fill-rule: evenodd;" d="M542,24l17-6V0L542,6V24Z"/>
</svg>
