<svg xmlns="http://www.w3.org/2000/svg" xmlns:xlink="http://www.w3.org/1999/xlink" preserveAspectRatio="xMidYMid" width="200" height="75" viewBox="0 0 200 75">
  <defs>
    <style>
      .cls-1, .cls-3 {
        fill: #fff;
      }

      .cls-1 {
        fill-rule: evenodd;
      }

      .cls-2 {
        filter: url(#color-overlay-1);
      }
    </style>

    <filter id="color-overlay-1" filterUnits="userSpaceOnUse">
      <feFlood flood-color="#65429a"/>
      <feComposite operator="in" in2="SourceGraphic"/>
      <feBlend in2="SourceGraphic" result="solidFill"/>
    </filter>
  </defs>
  <path d="M179.591,24.219 L170.355,24.219 L170.355,53.902 L166.239,53.902 L166.239,24.219 L156.764,24.219 L156.764,20.680 L179.751,20.680 L179.591,24.219 ZM135.833,53.583 L135.833,20.999 L139.630,20.999 L139.630,49.948 L153.221,49.948 L152.424,53.583 L135.833,53.583 ZM118.778,21.290 L122.285,20.251 L122.285,56.545 L118.778,57.584 L118.778,21.290 ZM101.949,45.166 L89.124,45.166 L86.539,53.583 L82.328,53.583 L93.000,20.680 L98.264,20.680 L108.888,53.583 L104.486,53.583 L101.949,45.166 ZM95.536,24.123 L90.129,41.770 L100.896,41.770 L95.536,24.123 ZM69.980,53.583 L61.940,39.427 L56.484,39.427 L56.484,53.583 L52.368,53.583 L52.368,20.680 L60.839,20.680 C68.975,20.680 73.186,23.836 73.186,29.910 C73.186,34.597 70.697,37.323 66.007,38.710 L74.909,53.583 L69.980,53.583 ZM68.783,29.910 C68.783,25.749 66.390,23.932 60.791,23.932 L56.484,23.932 L56.484,36.223 L61.317,36.223 C66.055,36.223 68.783,34.453 68.783,29.910 Z" class="cls-1"/>
  <path d="M122.285,12.501 L118.778,13.540 L118.778,17.334 L122.285,16.295 L122.285,12.501 Z" class="cls-1"/>
  <circle cx="21" cy="37" r="19" class="cls-2"/>
  <circle cx="21" cy="37" r="10" class="cls-3"/>
</svg>
